<svg width="192" height="191" viewBox="0 0 192 191" fill="none" xmlns="http://www.w3.org/2000/svg">
<path d="M46.8102 60.5496C46.7169 60.5496 46.6422 60.5216 46.5862 60.4656C46.5302 60.4002 46.5022 60.3209 46.5022 60.2276V51.0856C46.5022 50.9829 46.5302 50.9036 46.5862 50.8476C46.6422 50.7822 46.7169 50.7496 46.8102 50.7496H52.5642C52.6669 50.7496 52.7462 50.7822 52.8022 50.8476C52.8675 50.9036 52.9002 50.9829 52.9002 51.0856V51.5896C52.9002 51.6829 52.8675 51.7576 52.8022 51.8136C52.7462 51.8696 52.6669 51.8976 52.5642 51.8976H47.7902V55.0196H52.2562C52.3589 55.0196 52.4382 55.0522 52.4942 55.1176C52.5595 55.1736 52.5922 55.2529 52.5922 55.3556V55.8316C52.5922 55.9249 52.5595 56.0042 52.4942 56.0696C52.4382 56.1256 52.3589 56.1536 52.2562 56.1536H47.7902V59.3876H52.6762C52.7789 59.3876 52.8582 59.4202 52.9142 59.4856C52.9795 59.5416 53.0122 59.6209 53.0122 59.7236V60.2276C53.0122 60.3209 52.9795 60.4002 52.9142 60.4656C52.8489 60.5216 52.7695 60.5496 52.6762 60.5496H46.8102ZM55.1188 60.5496C55.0254 60.5496 54.9461 60.5216 54.8808 60.4656C54.8248 60.4002 54.7968 60.3209 54.7968 60.2276V53.5916C54.7968 53.4982 54.8248 53.4236 54.8808 53.3676C54.9461 53.3022 55.0254 53.2696 55.1188 53.2696H55.7208C55.8234 53.2696 55.9028 53.2976 55.9588 53.3536C56.0148 53.4096 56.0428 53.4889 56.0428 53.5916V54.2076C56.3228 53.8622 56.6448 53.5962 57.0088 53.4096C57.3821 53.2229 57.8441 53.1296 58.3948 53.1296C59.2908 53.1296 59.9861 53.4189 60.4808 53.9976C60.9754 54.5669 61.2228 55.3229 61.2228 56.2656V60.2276C61.2228 60.3209 61.1901 60.4002 61.1248 60.4656C61.0688 60.5216 60.9941 60.5496 60.9008 60.5496H60.2568C60.1634 60.5496 60.0841 60.5216 60.0188 60.4656C59.9628 60.4002 59.9348 60.3209 59.9348 60.2276V56.3496C59.9348 55.6776 59.7714 55.1549 59.4448 54.7816C59.1181 54.4082 58.6514 54.2216 58.0448 54.2216C57.4474 54.2216 56.9714 54.4129 56.6168 54.7956C56.2621 55.1689 56.0848 55.6869 56.0848 56.3496V60.2276C56.0848 60.3209 56.0521 60.4002 55.9868 60.4656C55.9308 60.5216 55.8561 60.5496 55.7628 60.5496H55.1188ZM66.158 60.6896C65.1593 60.6896 64.38 60.4096 63.82 59.8496C63.26 59.2802 62.966 58.4869 62.938 57.4696L62.924 56.9096L62.938 56.3496C62.966 55.3322 63.26 54.5436 63.82 53.9836C64.38 53.4142 65.1593 53.1296 66.158 53.1296C66.83 53.1296 67.3947 53.2509 67.852 53.4936C68.3187 53.7269 68.664 54.0209 68.888 54.3756C69.1213 54.7302 69.2473 55.0849 69.266 55.4396C69.2753 55.5236 69.2427 55.5982 69.168 55.6636C69.1027 55.7289 69.028 55.7616 68.944 55.7616H68.328C68.2347 55.7616 68.1647 55.7429 68.118 55.7056C68.0713 55.6589 68.0247 55.5796 67.978 55.4676C67.81 55.0102 67.5767 54.6882 67.278 54.5016C66.9887 54.3056 66.62 54.2076 66.172 54.2076C65.584 54.2076 65.1173 54.3896 64.772 54.7536C64.4267 55.1176 64.24 55.6729 64.212 56.4196L64.198 56.9096L64.212 57.3996C64.24 58.1462 64.4267 58.7016 64.772 59.0656C65.1173 59.4296 65.584 59.6116 66.172 59.6116C66.6293 59.6116 67.0027 59.5182 67.292 59.3316C67.5813 59.1356 67.81 58.8089 67.978 58.3516C68.0247 58.2396 68.0713 58.1649 68.118 58.1276C68.1647 58.0809 68.2347 58.0576 68.328 58.0576H68.944C69.028 58.0576 69.1027 58.0902 69.168 58.1556C69.2427 58.2209 69.2753 58.2956 69.266 58.3796C69.2473 58.7249 69.1213 59.0749 68.888 59.4296C68.664 59.7842 68.3187 60.0829 67.852 60.3256C67.3947 60.5682 66.83 60.6896 66.158 60.6896ZM71.2652 60.5496C71.1719 60.5496 71.0926 60.5216 71.0272 60.4656C70.9712 60.4002 70.9432 60.3209 70.9432 60.2276V53.6056C70.9432 53.5122 70.9712 53.4329 71.0272 53.3676C71.0926 53.3022 71.1719 53.2696 71.2652 53.2696H71.8532C71.9559 53.2696 72.0352 53.3022 72.0912 53.3676C72.1566 53.4236 72.1892 53.5029 72.1892 53.6056V54.2216C72.5719 53.5869 73.2206 53.2696 74.1352 53.2696H74.6812C74.7839 53.2696 74.8632 53.2976 74.9192 53.3536C74.9752 53.4096 75.0032 53.4889 75.0032 53.5916V54.1096C75.0032 54.2029 74.9752 54.2822 74.9192 54.3476C74.8632 54.4036 74.7839 54.4316 74.6812 54.4316H73.8832C73.3699 54.4316 72.9639 54.5809 72.6652 54.8796C72.3759 55.1782 72.2312 55.5842 72.2312 56.0976V60.2276C72.2312 60.3209 72.1986 60.4002 72.1332 60.4656C72.0679 60.5216 71.9886 60.5496 71.8952 60.5496H71.2652ZM77.4809 63.2096C77.3969 63.2096 77.3269 63.1816 77.2709 63.1256C77.2149 63.0696 77.1869 63.0042 77.1869 62.9296C77.1869 62.9016 77.2103 62.8176 77.2569 62.6776L78.3489 60.1156L75.6749 53.8016C75.6189 53.6896 75.5909 53.6102 75.5909 53.5636C75.6003 53.4796 75.6329 53.4096 75.6889 53.3536C75.7449 53.2976 75.8103 53.2696 75.8849 53.2696H76.5289C76.6783 53.2696 76.7903 53.3442 76.8649 53.4936L79.0209 58.6456L81.2329 53.4936C81.3076 53.3442 81.4196 53.2696 81.5689 53.2696H82.1989C82.2736 53.2696 82.3389 53.2976 82.3949 53.3536C82.4509 53.4096 82.4789 53.4749 82.4789 53.5496C82.4789 53.6149 82.4556 53.6989 82.4089 53.8016L78.4469 62.9856C78.4003 63.0602 78.3489 63.1162 78.2929 63.1536C78.2463 63.1909 78.1809 63.2096 78.0969 63.2096H77.4809ZM84.2265 63.2096C84.1332 63.2096 84.0538 63.1816 83.9885 63.1256C83.9325 63.0696 83.9045 62.9902 83.9045 62.8876V53.5916C83.9045 53.4889 83.9325 53.4096 83.9885 53.3536C84.0538 53.2976 84.1332 53.2696 84.2265 53.2696H84.8145C84.9172 53.2696 84.9965 53.2976 85.0525 53.3536C85.1085 53.4096 85.1365 53.4889 85.1365 53.5916V54.2076C85.6778 53.4889 86.4478 53.1296 87.4465 53.1296C88.4265 53.1296 89.1592 53.4422 89.6445 54.0676C90.1392 54.6836 90.4005 55.4722 90.4285 56.4336C90.4378 56.5362 90.4425 56.6949 90.4425 56.9096C90.4425 57.1242 90.4378 57.2829 90.4285 57.3856C90.4005 58.3376 90.1392 59.1262 89.6445 59.7516C89.1592 60.3769 88.4265 60.6896 87.4465 60.6896C86.4478 60.6896 85.6918 60.3349 85.1785 59.6256V62.8876C85.1785 62.9809 85.1458 63.0556 85.0805 63.1116C85.0245 63.1769 84.9498 63.2096 84.8565 63.2096H84.2265ZM87.1805 59.5976C87.8525 59.5976 88.3425 59.3876 88.6505 58.9676C88.9585 58.5476 89.1265 57.9969 89.1545 57.3156C89.1638 57.2222 89.1685 57.0869 89.1685 56.9096C89.1685 55.1176 88.5058 54.2216 87.1805 54.2216C86.5272 54.2216 86.0325 54.4409 85.6965 54.8796C85.3698 55.3089 85.1972 55.8176 85.1785 56.4056C85.1692 56.5082 85.1645 56.6902 85.1645 56.9516C85.1645 57.2129 85.1692 57.3949 85.1785 57.4976C85.1972 58.0669 85.3745 58.5616 85.7105 58.9816C86.0558 59.3922 86.5458 59.5976 87.1805 59.5976ZM94.921 60.5496C93.4743 60.5496 92.751 59.7329 92.751 58.0996V54.3476H91.645C91.5517 54.3476 91.477 54.3196 91.421 54.2636C91.365 54.2076 91.337 54.1329 91.337 54.0396V53.5916C91.337 53.4982 91.365 53.4236 91.421 53.3676C91.477 53.3022 91.5517 53.2696 91.645 53.2696H92.751V50.9316C92.751 50.8382 92.779 50.7636 92.835 50.7076C92.891 50.6422 92.9657 50.6096 93.059 50.6096H93.675C93.7683 50.6096 93.843 50.6422 93.899 50.7076C93.9643 50.7636 93.997 50.8382 93.997 50.9316V53.2696H95.733C95.8263 53.2696 95.901 53.3022 95.957 53.3676C96.0223 53.4236 96.055 53.4982 96.055 53.5916V54.0396C96.055 54.1329 96.0223 54.2076 95.957 54.2636C95.901 54.3196 95.8263 54.3476 95.733 54.3476H93.997V58.0016C93.997 58.4776 94.0717 58.8369 94.221 59.0796C94.3797 59.3222 94.6457 59.4436 95.019 59.4436H95.873C95.9663 59.4436 96.041 59.4762 96.097 59.5416C96.153 59.5976 96.181 59.6722 96.181 59.7656V60.2276C96.181 60.3209 96.153 60.4002 96.097 60.4656C96.041 60.5216 95.9663 60.5496 95.873 60.5496H94.921ZM100.433 60.6896C99.4807 60.6896 98.7201 60.3956 98.1507 59.8076C97.5814 59.2102 97.2687 58.3982 97.2127 57.3716L97.1987 56.8956L97.2127 56.4336C97.2687 55.4256 97.5814 54.6229 98.1507 54.0256C98.7201 53.4282 99.4807 53.1296 100.433 53.1296C101.459 53.1296 102.253 53.4562 102.813 54.1096C103.382 54.7629 103.667 55.6496 103.667 56.7696V57.0216C103.667 57.1149 103.634 57.1942 103.569 57.2596C103.513 57.3156 103.438 57.3436 103.345 57.3436H98.4867V57.4696C98.5147 58.0762 98.7014 58.5942 99.0467 59.0236C99.3921 59.4529 99.8494 59.6676 100.419 59.6676C100.857 59.6676 101.212 59.5836 101.483 59.4156C101.763 59.2382 101.973 59.0562 102.113 58.8696C102.197 58.7576 102.262 58.6922 102.309 58.6736C102.355 58.6456 102.435 58.6316 102.547 58.6316H103.163C103.247 58.6316 103.317 58.6549 103.373 58.7016C103.438 58.7482 103.471 58.8089 103.471 58.8836C103.471 59.0889 103.345 59.3362 103.093 59.6256C102.841 59.9149 102.481 60.1669 102.015 60.3816C101.557 60.5869 101.03 60.6896 100.433 60.6896ZM102.393 56.3916V56.3496C102.393 55.6962 102.215 55.1642 101.861 54.7536C101.506 54.3429 101.03 54.1376 100.433 54.1376C99.8261 54.1376 99.3501 54.3429 99.0047 54.7536C98.6594 55.1642 98.4867 55.6962 98.4867 56.3496V56.3916H102.393ZM108.029 60.6896C107.049 60.6896 106.312 60.3722 105.817 59.7376C105.332 59.1029 105.07 58.3002 105.033 57.3296L105.019 56.9096L105.033 56.4896C105.07 55.5282 105.336 54.7302 105.831 54.0956C106.326 53.4516 107.058 53.1296 108.029 53.1296C109 53.1296 109.756 53.4749 110.297 54.1656V50.9316C110.297 50.8382 110.325 50.7636 110.381 50.7076C110.446 50.6422 110.526 50.6096 110.619 50.6096H111.249C111.342 50.6096 111.417 50.6422 111.473 50.7076C111.538 50.7636 111.571 50.8382 111.571 50.9316V60.2276C111.571 60.3209 111.538 60.4002 111.473 60.4656C111.417 60.5216 111.342 60.5496 111.249 60.5496H110.647C110.554 60.5496 110.479 60.5216 110.423 60.4656C110.367 60.4002 110.339 60.3209 110.339 60.2276V59.6256C109.807 60.3349 109.037 60.6896 108.029 60.6896ZM108.295 59.5976C108.948 59.5976 109.438 59.3829 109.765 58.9536C110.092 58.5149 110.269 57.9969 110.297 57.3996C110.306 57.2969 110.311 57.1196 110.311 56.8676C110.311 56.6062 110.306 56.4242 110.297 56.3216C110.278 55.7522 110.096 55.2622 109.751 54.8516C109.415 54.4316 108.93 54.2216 108.295 54.2216C107.623 54.2216 107.133 54.4316 106.825 54.8516C106.517 55.2716 106.349 55.8222 106.321 56.5036L106.307 56.9096C106.307 58.7016 106.97 59.5976 108.295 59.5976ZM120.809 60.6896C119.568 60.6896 118.62 60.3536 117.967 59.6816C117.323 59.0002 116.978 58.0716 116.931 56.8956C116.922 56.6436 116.917 56.2329 116.917 55.6636C116.917 55.0849 116.922 54.6649 116.931 54.4036C116.978 53.2276 117.323 52.3036 117.967 51.6316C118.62 50.9502 119.568 50.6096 120.809 50.6096C121.64 50.6096 122.344 50.7589 122.923 51.0576C123.502 51.3469 123.936 51.7296 124.225 52.2056C124.524 52.6816 124.687 53.1902 124.715 53.7316C124.715 53.8156 124.682 53.8856 124.617 53.9416C124.561 53.9882 124.491 54.0116 124.407 54.0116H123.707C123.614 54.0116 123.539 53.9882 123.483 53.9416C123.427 53.8949 123.385 53.8156 123.357 53.7036C123.198 52.9849 122.909 52.4809 122.489 52.1916C122.078 51.9022 121.518 51.7576 120.809 51.7576C119.185 51.7576 118.34 52.6629 118.275 54.4736C118.266 54.7256 118.261 55.1129 118.261 55.6356C118.261 56.1582 118.266 56.5549 118.275 56.8256C118.34 58.6269 119.185 59.5276 120.809 59.5276C121.509 59.5276 122.069 59.3829 122.489 59.0936C122.909 58.8042 123.198 58.3049 123.357 57.5956C123.385 57.4836 123.427 57.4042 123.483 57.3576C123.539 57.3109 123.614 57.2876 123.707 57.2876H124.407C124.491 57.2876 124.561 57.3156 124.617 57.3716C124.682 57.4182 124.715 57.4836 124.715 57.5676C124.687 58.1089 124.524 58.6176 124.225 59.0936C123.936 59.5696 123.502 59.9569 122.923 60.2556C122.344 60.5449 121.64 60.6896 120.809 60.6896ZM129.391 60.6896C128.365 60.6896 127.571 60.4002 127.011 59.8216C126.461 59.2429 126.167 58.4729 126.129 57.5116L126.115 56.9096L126.129 56.3076C126.167 55.3462 126.465 54.5762 127.025 53.9976C127.595 53.4189 128.383 53.1296 129.391 53.1296C130.399 53.1296 131.183 53.4189 131.743 53.9976C132.313 54.5762 132.616 55.3462 132.653 56.3076C132.672 56.5129 132.681 56.7136 132.681 56.9096C132.681 57.1056 132.672 57.3062 132.653 57.5116C132.616 58.4729 132.317 59.2429 131.757 59.8216C131.207 60.4002 130.418 60.6896 129.391 60.6896ZM129.391 59.6396C129.989 59.6396 130.46 59.4529 130.805 59.0796C131.16 58.6969 131.351 58.1509 131.379 57.4416C131.389 57.3482 131.393 57.1709 131.393 56.9096C131.393 56.6482 131.389 56.4709 131.379 56.3776C131.351 55.6682 131.16 55.1269 130.805 54.7536C130.46 54.3709 129.989 54.1796 129.391 54.1796C128.794 54.1796 128.318 54.3709 127.963 54.7536C127.618 55.1269 127.431 55.6682 127.403 56.3776L127.389 56.9096L127.403 57.4416C127.431 58.1509 127.618 58.6969 127.963 59.0796C128.318 59.4529 128.794 59.6396 129.391 59.6396ZM134.771 60.5496C134.678 60.5496 134.598 60.5216 134.533 60.4656C134.477 60.4002 134.449 60.3209 134.449 60.2276V53.5916C134.449 53.4982 134.477 53.4236 134.533 53.3676C134.598 53.3022 134.678 53.2696 134.771 53.2696H135.373C135.476 53.2696 135.555 53.2976 135.611 53.3536C135.667 53.4096 135.695 53.4889 135.695 53.5916V54.2076C135.975 53.8622 136.297 53.5962 136.661 53.4096C137.034 53.2229 137.496 53.1296 138.047 53.1296C138.943 53.1296 139.638 53.4189 140.133 53.9976C140.628 54.5669 140.875 55.3229 140.875 56.2656V60.2276C140.875 60.3209 140.842 60.4002 140.777 60.4656C140.721 60.5216 140.646 60.5496 140.553 60.5496H139.909C139.816 60.5496 139.736 60.5216 139.671 60.4656C139.615 60.4002 139.587 60.3209 139.587 60.2276V56.3496C139.587 55.6776 139.424 55.1549 139.097 54.7816C138.77 54.4082 138.304 54.2216 137.697 54.2216C137.1 54.2216 136.624 54.4129 136.269 54.7956C135.914 55.1689 135.737 55.6869 135.737 56.3496V60.2276C135.737 60.3209 135.704 60.4002 135.639 60.4656C135.583 60.5216 135.508 60.5496 135.415 60.5496H134.771ZM143.22 60.5496C143.127 60.5496 143.048 60.5216 142.982 60.4656C142.926 60.4002 142.898 60.3209 142.898 60.2276V53.5916C142.898 53.4982 142.926 53.4236 142.982 53.3676C143.048 53.3022 143.127 53.2696 143.22 53.2696H143.822C143.925 53.2696 144.004 53.2976 144.06 53.3536C144.116 53.4096 144.144 53.4889 144.144 53.5916V54.2076C144.424 53.8622 144.746 53.5962 145.11 53.4096C145.484 53.2229 145.946 53.1296 146.496 53.1296C147.392 53.1296 148.088 53.4189 148.582 53.9976C149.077 54.5669 149.324 55.3229 149.324 56.2656V60.2276C149.324 60.3209 149.292 60.4002 149.226 60.4656C149.17 60.5216 149.096 60.5496 149.002 60.5496H148.358C148.265 60.5496 148.186 60.5216 148.12 60.4656C148.064 60.4002 148.036 60.3209 148.036 60.2276V56.3496C148.036 55.6776 147.873 55.1549 147.546 54.7816C147.22 54.4082 146.753 54.2216 146.146 54.2216C145.549 54.2216 145.073 54.4129 144.718 54.7956C144.364 55.1689 144.186 55.6869 144.186 56.3496V60.2276C144.186 60.3209 144.154 60.4002 144.088 60.4656C144.032 60.5216 143.958 60.5496 143.864 60.5496H143.22ZM154.232 60.6896C153.28 60.6896 152.519 60.3956 151.95 59.8076C151.38 59.2102 151.068 58.3982 151.012 57.3716L150.998 56.8956L151.012 56.4336C151.068 55.4256 151.38 54.6229 151.95 54.0256C152.519 53.4282 153.28 53.1296 154.232 53.1296C155.258 53.1296 156.052 53.4562 156.612 54.1096C157.181 54.7629 157.466 55.6496 157.466 56.7696V57.0216C157.466 57.1149 157.433 57.1942 157.368 57.2596C157.312 57.3156 157.237 57.3436 157.144 57.3436H152.286V57.4696C152.314 58.0762 152.5 58.5942 152.846 59.0236C153.191 59.4529 153.648 59.6676 154.218 59.6676C154.656 59.6676 155.011 59.5836 155.282 59.4156C155.562 59.2382 155.772 59.0562 155.912 58.8696C155.996 58.7576 156.061 58.6922 156.108 58.6736C156.154 58.6456 156.234 58.6316 156.346 58.6316H156.962C157.046 58.6316 157.116 58.6549 157.172 58.7016C157.237 58.7482 157.27 58.8089 157.27 58.8836C157.27 59.0889 157.144 59.3362 156.892 59.6256C156.64 59.9149 156.28 60.1669 155.814 60.3816C155.356 60.5869 154.829 60.6896 154.232 60.6896ZM156.192 56.3916V56.3496C156.192 55.6962 156.014 55.1642 155.66 54.7536C155.305 54.3429 154.829 54.1376 154.232 54.1376C153.625 54.1376 153.149 54.3429 152.804 54.7536C152.458 55.1642 152.286 55.6962 152.286 56.3496V56.3916H156.192ZM162.08 60.6896C161.081 60.6896 160.302 60.4096 159.742 59.8496C159.182 59.2802 158.888 58.4869 158.86 57.4696L158.846 56.9096L158.86 56.3496C158.888 55.3322 159.182 54.5436 159.742 53.9836C160.302 53.4142 161.081 53.1296 162.08 53.1296C162.752 53.1296 163.317 53.2509 163.774 53.4936C164.241 53.7269 164.586 54.0209 164.81 54.3756C165.043 54.7302 165.169 55.0849 165.188 55.4396C165.197 55.5236 165.165 55.5982 165.09 55.6636C165.025 55.7289 164.95 55.7616 164.866 55.7616H164.25C164.157 55.7616 164.087 55.7429 164.04 55.7056C163.993 55.6589 163.947 55.5796 163.9 55.4676C163.732 55.0102 163.499 54.6882 163.2 54.5016C162.911 54.3056 162.542 54.2076 162.094 54.2076C161.506 54.2076 161.039 54.3896 160.694 54.7536C160.349 55.1176 160.162 55.6729 160.134 56.4196L160.12 56.9096L160.134 57.3996C160.162 58.1462 160.349 58.7016 160.694 59.0656C161.039 59.4296 161.506 59.6116 162.094 59.6116C162.551 59.6116 162.925 59.5182 163.214 59.3316C163.503 59.1356 163.732 58.8089 163.9 58.3516C163.947 58.2396 163.993 58.1649 164.04 58.1276C164.087 58.0809 164.157 58.0576 164.25 58.0576H164.866C164.95 58.0576 165.025 58.0902 165.09 58.1556C165.165 58.2209 165.197 58.2956 165.188 58.3796C165.169 58.7249 165.043 59.0749 164.81 59.4296C164.586 59.7842 164.241 60.0829 163.774 60.3256C163.317 60.5682 162.752 60.6896 162.08 60.6896ZM169.665 60.5496C168.218 60.5496 167.495 59.7329 167.495 58.0996V54.3476H166.389C166.296 54.3476 166.221 54.3196 166.165 54.2636C166.109 54.2076 166.081 54.1329 166.081 54.0396V53.5916C166.081 53.4982 166.109 53.4236 166.165 53.3676C166.221 53.3022 166.296 53.2696 166.389 53.2696H167.495V50.9316C167.495 50.8382 167.523 50.7636 167.579 50.7076C167.635 50.6422 167.71 50.6096 167.803 50.6096H168.419C168.512 50.6096 168.587 50.6422 168.643 50.7076C168.708 50.7636 168.741 50.8382 168.741 50.9316V53.2696H170.477C170.57 53.2696 170.645 53.3022 170.701 53.3676C170.766 53.4236 170.799 53.4982 170.799 53.5916V54.0396C170.799 54.1329 170.766 54.2076 170.701 54.2636C170.645 54.3196 170.57 54.3476 170.477 54.3476H168.741V58.0016C168.741 58.4776 168.816 58.8369 168.965 59.0796C169.124 59.3222 169.39 59.4436 169.763 59.4436H170.617C170.71 59.4436 170.785 59.4762 170.841 59.5416C170.897 59.5976 170.925 59.6722 170.925 59.7656V60.2276C170.925 60.3209 170.897 60.4002 170.841 60.4656C170.785 60.5216 170.71 60.5496 170.617 60.5496H169.665ZM172.503 51.8976C172.41 51.8976 172.33 51.8696 172.265 51.8136C172.209 51.7482 172.181 51.6689 172.181 51.5756V50.8476C172.181 50.7542 172.209 50.6749 172.265 50.6096C172.33 50.5442 172.41 50.5116 172.503 50.5116H173.329C173.422 50.5116 173.502 50.5442 173.567 50.6096C173.632 50.6749 173.665 50.7542 173.665 50.8476V51.5756C173.665 51.6689 173.632 51.7482 173.567 51.8136C173.502 51.8696 173.422 51.8976 173.329 51.8976H172.503ZM172.615 60.5496C172.522 60.5496 172.442 60.5216 172.377 60.4656C172.321 60.4002 172.293 60.3209 172.293 60.2276V53.5916C172.293 53.4982 172.321 53.4236 172.377 53.3676C172.442 53.3022 172.522 53.2696 172.615 53.2696H173.231C173.324 53.2696 173.399 53.3022 173.455 53.3676C173.52 53.4236 173.553 53.4982 173.553 53.5916V60.2276C173.553 60.3209 173.52 60.4002 173.455 60.4656C173.399 60.5216 173.324 60.5496 173.231 60.5496H172.615ZM178.61 60.6896C177.583 60.6896 176.79 60.4002 176.23 59.8216C175.679 59.2429 175.385 58.4729 175.348 57.5116L175.334 56.9096L175.348 56.3076C175.385 55.3462 175.684 54.5762 176.244 53.9976C176.813 53.4189 177.602 53.1296 178.61 53.1296C179.618 53.1296 180.402 53.4189 180.962 53.9976C181.531 54.5762 181.835 55.3462 181.872 56.3076C181.891 56.5129 181.9 56.7136 181.9 56.9096C181.9 57.1056 181.891 57.3062 181.872 57.5116C181.835 58.4729 181.536 59.2429 180.976 59.8216C180.425 60.4002 179.637 60.6896 178.61 60.6896ZM178.61 59.6396C179.207 59.6396 179.679 59.4529 180.024 59.0796C180.379 58.6969 180.57 58.1509 180.598 57.4416C180.607 57.3482 180.612 57.1709 180.612 56.9096C180.612 56.6482 180.607 56.4709 180.598 56.3776C180.57 55.6682 180.379 55.1269 180.024 54.7536C179.679 54.3709 179.207 54.1796 178.61 54.1796C178.013 54.1796 177.537 54.3709 177.182 54.7536C176.837 55.1269 176.65 55.6682 176.622 56.3776L176.608 56.9096L176.622 57.4416C176.65 58.1509 176.837 58.6969 177.182 59.0796C177.537 59.4529 178.013 59.6396 178.61 59.6396ZM183.99 60.5496C183.897 60.5496 183.817 60.5216 183.752 60.4656C183.696 60.4002 183.668 60.3209 183.668 60.2276V53.5916C183.668 53.4982 183.696 53.4236 183.752 53.3676C183.817 53.3022 183.897 53.2696 183.99 53.2696H184.592C184.695 53.2696 184.774 53.2976 184.83 53.3536C184.886 53.4096 184.914 53.4889 184.914 53.5916V54.2076C185.194 53.8622 185.516 53.5962 185.88 53.4096C186.253 53.2229 186.715 53.1296 187.266 53.1296C188.162 53.1296 188.857 53.4189 189.352 53.9976C189.847 54.5669 190.094 55.3229 190.094 56.2656V60.2276C190.094 60.3209 190.061 60.4002 189.996 60.4656C189.94 60.5216 189.865 60.5496 189.772 60.5496H189.128C189.035 60.5496 188.955 60.5216 188.89 60.4656C188.834 60.4002 188.806 60.3209 188.806 60.2276V56.3496C188.806 55.6776 188.643 55.1549 188.316 54.7816C187.989 54.4082 187.523 54.2216 186.916 54.2216C186.319 54.2216 185.843 54.4129 185.488 54.7956C185.133 55.1689 184.956 55.6869 184.956 56.3496V60.2276C184.956 60.3209 184.923 60.4002 184.858 60.4656C184.802 60.5216 184.727 60.5496 184.634 60.5496H183.99Z" fill="#4F5665"/>
<path d="M11.5762 60.2796C11.4449 60.2798 11.3149 60.2542 11.1935 60.2041C11.0722 60.154 10.962 60.0804 10.8692 59.9876L6.62715 55.7446C6.53158 55.6524 6.45532 55.5421 6.40283 55.4201C6.35033 55.2982 6.32266 55.167 6.32141 55.0342C6.32016 54.9014 6.34537 54.7697 6.39557 54.6468C6.44576 54.5238 6.51993 54.4121 6.61376 54.3182C6.70758 54.2242 6.81918 54.1499 6.94204 54.0995C7.0649 54.0492 7.19656 54.0238 7.32934 54.0248C7.46212 54.0259 7.59336 54.0534 7.7154 54.1057C7.83744 54.158 7.94784 54.2341 8.04015 54.3296L11.5752 57.8646L17.9402 51.5016C18.1277 51.3139 18.382 51.2085 18.6473 51.2084C18.9126 51.2083 19.167 51.3136 19.3547 51.5011C19.5423 51.6886 19.6478 51.9429 19.6479 52.2082C19.6479 52.4735 19.5427 52.7279 19.3552 52.9156L12.2832 59.9876C12.1903 60.0804 12.0801 60.154 11.9588 60.2041C11.8374 60.2542 11.7074 60.2798 11.5762 60.2796Z" fill="#2FAB73"/>
<path d="M49.4422 100.55C49.3489 100.55 49.2695 100.522 49.2042 100.466C49.1482 100.4 49.1202 100.321 49.1202 100.228V96.9096L45.7462 91.2116C45.7182 91.1556 45.7042 91.0949 45.7042 91.0296C45.7042 90.9549 45.7322 90.8896 45.7882 90.8336C45.8442 90.7776 45.9095 90.7496 45.9842 90.7496H46.6562C46.8242 90.7496 46.9455 90.8289 47.0202 90.9876L49.7922 95.5656L52.5502 90.9876C52.6435 90.8289 52.7649 90.7496 52.9142 90.7496H53.5862C53.6609 90.7496 53.7262 90.7776 53.7822 90.8336C53.8475 90.8896 53.8802 90.9549 53.8802 91.0296C53.8802 91.0762 53.8615 91.1369 53.8242 91.2116L50.4502 96.9096V100.228C50.4502 100.321 50.4175 100.4 50.3522 100.466C50.2962 100.522 50.2169 100.55 50.1142 100.55H49.4422ZM57.0519 100.69C56.0999 100.69 55.3392 100.396 54.7699 99.8076C54.2005 99.2102 53.8879 98.3982 53.8319 97.3716L53.8179 96.8956L53.8319 96.4336C53.8879 95.4256 54.2005 94.6229 54.7699 94.0256C55.3392 93.4282 56.0999 93.1296 57.0519 93.1296C58.0785 93.1296 58.8719 93.4562 59.4319 94.1096C60.0012 94.7629 60.2859 95.6496 60.2859 96.7696V97.0216C60.2859 97.1149 60.2532 97.1942 60.1879 97.2596C60.1319 97.3156 60.0572 97.3436 59.9639 97.3436H55.1059V97.4696C55.1339 98.0762 55.3205 98.5942 55.6659 99.0236C56.0112 99.4529 56.4685 99.6676 57.0379 99.6676C57.4765 99.6676 57.8312 99.5836 58.1019 99.4156C58.3819 99.2382 58.5919 99.0562 58.7319 98.8696C58.8159 98.7576 58.8812 98.6922 58.9279 98.6736C58.9745 98.6456 59.0539 98.6316 59.1659 98.6316H59.7819C59.8659 98.6316 59.9359 98.6549 59.9919 98.7016C60.0572 98.7482 60.0899 98.8089 60.0899 98.8836C60.0899 99.0889 59.9639 99.3362 59.7119 99.6256C59.4599 99.9149 59.1005 100.167 58.6339 100.382C58.1765 100.587 57.6492 100.69 57.0519 100.69ZM59.0119 96.3916V96.3496C59.0119 95.6962 58.8345 95.1642 58.4799 94.7536C58.1252 94.3429 57.6492 94.1376 57.0519 94.1376C56.4452 94.1376 55.9692 94.3429 55.6239 94.7536C55.2785 95.1642 55.1059 95.6962 55.1059 96.3496V96.3916H59.0119ZM64.4802 100.69C63.8362 100.69 63.2902 100.587 62.8422 100.382C62.4035 100.167 62.0768 99.9242 61.8622 99.6536C61.6475 99.3829 61.5402 99.1589 61.5402 98.9816C61.5402 98.8882 61.5728 98.8182 61.6382 98.7716C61.7035 98.7156 61.7735 98.6876 61.8482 98.6876H62.4362C62.4922 98.6876 62.5342 98.6969 62.5622 98.7156C62.5995 98.7342 62.6462 98.7762 62.7022 98.8416C62.9168 99.1029 63.1548 99.3082 63.4162 99.4576C63.6868 99.6069 64.0462 99.6816 64.4942 99.6816C64.9982 99.6816 65.3995 99.5882 65.6982 99.4016C66.0062 99.2149 66.1602 98.9442 66.1602 98.5896C66.1602 98.3562 66.0948 98.1696 65.9642 98.0296C65.8335 97.8896 65.6142 97.7636 65.3062 97.6516C65.0075 97.5396 64.5595 97.4182 63.9622 97.2876C63.1502 97.1102 62.5762 96.8536 62.2402 96.5176C61.9042 96.1816 61.7362 95.7476 61.7362 95.2156C61.7362 94.8702 61.8388 94.5389 62.0442 94.2216C62.2495 93.8949 62.5528 93.6336 62.9542 93.4376C63.3648 93.2322 63.8502 93.1296 64.4102 93.1296C64.9982 93.1296 65.4975 93.2276 65.9082 93.4236C66.3282 93.6196 66.6408 93.8482 66.8462 94.1096C67.0608 94.3709 67.1682 94.5902 67.1682 94.7676C67.1682 94.8516 67.1355 94.9216 67.0702 94.9776C67.0142 95.0336 66.9442 95.0616 66.8602 95.0616H66.3282C66.1975 95.0616 66.1042 95.0102 66.0482 94.9076C65.8895 94.7302 65.7542 94.5949 65.6422 94.5016C65.5395 94.3989 65.3855 94.3149 65.1802 94.2496C64.9748 94.1749 64.7182 94.1376 64.4102 94.1376C63.9528 94.1376 63.6028 94.2356 63.3602 94.4316C63.1175 94.6182 62.9962 94.8702 62.9962 95.1876C62.9962 95.3836 63.0475 95.5516 63.1502 95.6916C63.2528 95.8222 63.4488 95.9482 63.7382 96.0696C64.0275 96.1816 64.4568 96.2982 65.0262 96.4196C65.9128 96.6062 66.5382 96.8722 66.9022 97.2176C67.2755 97.5629 67.4622 98.0062 67.4622 98.5476C67.4622 98.9489 67.3455 99.3129 67.1122 99.6396C66.8882 99.9662 66.5475 100.223 66.0902 100.41C65.6422 100.596 65.1055 100.69 64.4802 100.69ZM74.8334 100.55C74.7401 100.55 74.6607 100.522 74.5954 100.466C74.5394 100.4 74.5114 100.321 74.5114 100.228V91.9536H71.8094C71.7161 91.9536 71.6367 91.9256 71.5714 91.8696C71.5154 91.8042 71.4874 91.7249 71.4874 91.6316V91.0856C71.4874 90.9829 71.5154 90.9036 71.5714 90.8476C71.6367 90.7822 71.7161 90.7496 71.8094 90.7496H78.5294C78.6321 90.7496 78.7114 90.7822 78.7674 90.8476C78.8234 90.9036 78.8514 90.9829 78.8514 91.0856V91.6316C78.8514 91.7249 78.8187 91.8042 78.7534 91.8696C78.6974 91.9256 78.6227 91.9536 78.5294 91.9536H75.8414V100.228C75.8414 100.321 75.8087 100.4 75.7434 100.466C75.6781 100.522 75.5987 100.55 75.5054 100.55H74.8334ZM79.4274 100.55C79.334 100.55 79.2547 100.522 79.1894 100.466C79.1334 100.4 79.1054 100.321 79.1054 100.228V93.6056C79.1054 93.5122 79.1334 93.4329 79.1894 93.3676C79.2547 93.3022 79.334 93.2696 79.4274 93.2696H80.0154C80.118 93.2696 80.1974 93.3022 80.2534 93.3676C80.3187 93.4236 80.3514 93.5029 80.3514 93.6056V94.2216C80.734 93.5869 81.3827 93.2696 82.2974 93.2696H82.8434C82.946 93.2696 83.0254 93.2976 83.0814 93.3536C83.1374 93.4096 83.1654 93.4889 83.1654 93.5916V94.1096C83.1654 94.2029 83.1374 94.2822 83.0814 94.3476C83.0254 94.4036 82.946 94.4316 82.8434 94.4316H82.0454C81.532 94.4316 81.126 94.5809 80.8274 94.8796C80.538 95.1782 80.3934 95.5842 80.3934 96.0976V100.228C80.3934 100.321 80.3607 100.4 80.2954 100.466C80.23 100.522 80.1507 100.55 80.0574 100.55H79.4274ZM86.2757 100.69C85.8183 100.69 85.3937 100.596 85.0017 100.41C84.619 100.223 84.311 99.9709 84.0777 99.6536C83.8537 99.3269 83.7417 98.9676 83.7417 98.5756C83.7417 97.9596 83.9937 97.4556 84.4977 97.0636C85.0017 96.6716 85.6877 96.4102 86.5557 96.2796L88.6557 95.9856V95.5796C88.6557 94.6182 88.1003 94.1376 86.9897 94.1376C86.5603 94.1376 86.215 94.2262 85.9537 94.4036C85.6923 94.5716 85.501 94.7722 85.3797 95.0056C85.3423 95.0989 85.3003 95.1642 85.2537 95.2016C85.2163 95.2296 85.1603 95.2436 85.0857 95.2436H84.5397C84.4557 95.2436 84.381 95.2156 84.3157 95.1596C84.2597 95.0942 84.2317 95.0196 84.2317 94.9356C84.2317 94.7209 84.3297 94.4736 84.5257 94.1936C84.731 93.9042 85.0437 93.6569 85.4637 93.4516C85.8837 93.2369 86.397 93.1296 87.0037 93.1296C88.049 93.1296 88.7957 93.3722 89.2437 93.8576C89.701 94.3429 89.9297 94.9496 89.9297 95.6776V100.228C89.9297 100.321 89.897 100.4 89.8317 100.466C89.7757 100.522 89.701 100.55 89.6077 100.55H88.9917C88.8983 100.55 88.8237 100.522 88.7677 100.466C88.7117 100.4 88.6837 100.321 88.6837 100.228V99.6116C88.4783 99.9196 88.1797 100.176 87.7877 100.382C87.3957 100.587 86.8917 100.69 86.2757 100.69ZM86.5557 99.6676C87.1717 99.6676 87.6757 99.4669 88.0677 99.0656C88.4597 98.6642 88.6557 98.0809 88.6557 97.3156V96.9236L87.0177 97.1616C86.3457 97.2549 85.837 97.4136 85.4917 97.6376C85.1463 97.8616 84.9737 98.1416 84.9737 98.4776C84.9737 98.8602 85.1277 99.1542 85.4357 99.3596C85.753 99.5649 86.1263 99.6676 86.5557 99.6676ZM92.9386 100.55C92.8452 100.55 92.7659 100.522 92.7006 100.466C92.6446 100.4 92.6166 100.321 92.6166 100.228V94.3476H91.4126C91.3192 94.3476 91.2399 94.3196 91.1746 94.2636C91.1186 94.2076 91.0906 94.1329 91.0906 94.0396V93.5916C91.0906 93.4982 91.1186 93.4236 91.1746 93.3676C91.2399 93.3022 91.3192 93.2696 91.4126 93.2696H92.6166V92.5696C92.6166 91.8136 92.7986 91.2302 93.1626 90.8196C93.5359 90.3996 94.1426 90.1896 94.9826 90.1896H95.8086C95.9019 90.1896 95.9766 90.2222 96.0326 90.2876C96.0979 90.3436 96.1306 90.4182 96.1306 90.5116V90.9596C96.1306 91.0529 96.0979 91.1276 96.0326 91.1836C95.9766 91.2396 95.9019 91.2676 95.8086 91.2676H95.0106C94.5812 91.2676 94.2826 91.3796 94.1146 91.6036C93.9466 91.8276 93.8626 92.1729 93.8626 92.6396V93.2696H96.8726V92.5696C96.8726 91.8136 97.0546 91.2302 97.4186 90.8196C97.7919 90.3996 98.3986 90.1896 99.2386 90.1896H101.325C101.427 90.1896 101.507 90.2176 101.563 90.2736C101.619 90.3296 101.647 90.4089 101.647 90.5116V90.9596C101.647 91.0529 101.614 91.1276 101.549 91.1836C101.493 91.2396 101.418 91.2676 101.325 91.2676H99.2666C98.8372 91.2676 98.5386 91.3796 98.3706 91.6036C98.2026 91.8276 98.1186 92.1729 98.1186 92.6396V93.2696H101.325C101.427 93.2696 101.507 93.2976 101.563 93.3536C101.619 93.4096 101.647 93.4889 101.647 93.5916V100.228C101.647 100.321 101.614 100.4 101.549 100.466C101.493 100.522 101.418 100.55 101.325 100.55H100.723C100.629 100.55 100.55 100.522 100.485 100.466C100.429 100.4 100.401 100.321 100.401 100.228V94.3476H98.1186V100.228C98.1186 100.321 98.0859 100.4 98.0206 100.466C97.9646 100.522 97.8899 100.55 97.7966 100.55H97.1806C97.0872 100.55 97.0126 100.522 96.9566 100.466C96.9006 100.4 96.8726 100.321 96.8726 100.228V94.3476H93.8626V100.228C93.8626 100.321 93.8299 100.4 93.7646 100.466C93.7086 100.522 93.6339 100.55 93.5406 100.55H92.9386ZM106.654 100.69C105.655 100.69 104.876 100.41 104.316 99.8496C103.756 99.2802 103.462 98.4869 103.434 97.4696L103.42 96.9096L103.434 96.3496C103.462 95.3322 103.756 94.5436 104.316 93.9836C104.876 93.4142 105.655 93.1296 106.654 93.1296C107.326 93.1296 107.891 93.2509 108.348 93.4936C108.815 93.7269 109.16 94.0209 109.384 94.3756C109.617 94.7302 109.743 95.0849 109.762 95.4396C109.771 95.5236 109.739 95.5982 109.664 95.6636C109.599 95.7289 109.524 95.7616 109.44 95.7616H108.824C108.731 95.7616 108.661 95.7429 108.614 95.7056C108.567 95.6589 108.521 95.5796 108.474 95.4676C108.306 95.0102 108.073 94.6882 107.774 94.5016C107.485 94.3056 107.116 94.2076 106.668 94.2076C106.08 94.2076 105.613 94.3896 105.268 94.7536C104.923 95.1176 104.736 95.6729 104.708 96.4196L104.694 96.9096L104.708 97.3996C104.736 98.1462 104.923 98.7016 105.268 99.0656C105.613 99.4296 106.08 99.6116 106.668 99.6116C107.125 99.6116 107.499 99.5182 107.788 99.3316C108.077 99.1356 108.306 98.8089 108.474 98.3516C108.521 98.2396 108.567 98.1649 108.614 98.1276C108.661 98.0809 108.731 98.0576 108.824 98.0576H109.44C109.524 98.0576 109.599 98.0902 109.664 98.1556C109.739 98.2209 109.771 98.2956 109.762 98.3796C109.743 98.7249 109.617 99.0749 109.384 99.4296C109.16 99.7842 108.815 100.083 108.348 100.326C107.891 100.568 107.326 100.69 106.654 100.69ZM115.375 100.55C115.281 100.55 115.207 100.522 115.151 100.466C115.095 100.4 115.067 100.321 115.067 100.228V91.0716C115.067 90.9782 115.095 90.9036 115.151 90.8476C115.207 90.7822 115.281 90.7496 115.375 90.7496H116.075C116.168 90.7496 116.243 90.7822 116.299 90.8476C116.355 90.9036 116.383 90.9782 116.383 91.0716V99.3736H121.059C121.161 99.3736 121.241 99.4062 121.297 99.4716C121.362 99.5276 121.395 99.6022 121.395 99.6956V100.228C121.395 100.321 121.362 100.4 121.297 100.466C121.231 100.522 121.152 100.55 121.059 100.55H115.375ZM125.536 100.69C124.509 100.69 123.716 100.4 123.156 99.8216C122.605 99.2429 122.311 98.4729 122.274 97.5116L122.26 96.9096L122.274 96.3076C122.311 95.3462 122.61 94.5762 123.17 93.9976C123.739 93.4189 124.528 93.1296 125.536 93.1296C126.544 93.1296 127.328 93.4189 127.888 93.9976C128.457 94.5762 128.761 95.3462 128.798 96.3076C128.817 96.5129 128.826 96.7136 128.826 96.9096C128.826 97.1056 128.817 97.3062 128.798 97.5116C128.761 98.4729 128.462 99.2429 127.902 99.8216C127.351 100.4 126.563 100.69 125.536 100.69ZM125.536 99.6396C126.133 99.6396 126.605 99.4529 126.95 99.0796C127.305 98.6969 127.496 98.1509 127.524 97.4416C127.533 97.3482 127.538 97.1709 127.538 96.9096C127.538 96.6482 127.533 96.4709 127.524 96.3776C127.496 95.6682 127.305 95.1269 126.95 94.7536C126.605 94.3709 126.133 94.1796 125.536 94.1796C124.939 94.1796 124.463 94.3709 124.108 94.7536C123.763 95.1269 123.576 95.6682 123.548 96.3776L123.534 96.9096L123.548 97.4416C123.576 98.1509 123.763 98.6969 124.108 99.0796C124.463 99.4529 124.939 99.6396 125.536 99.6396ZM133.548 103.63C132.773 103.63 132.152 103.499 131.686 103.238C131.219 102.976 130.888 102.678 130.692 102.342C130.505 102.006 130.412 101.716 130.412 101.474C130.412 101.39 130.444 101.315 130.51 101.25C130.575 101.194 130.65 101.166 130.734 101.166H131.35C131.434 101.166 131.504 101.184 131.56 101.222C131.616 101.268 131.662 101.348 131.7 101.46C131.961 102.206 132.554 102.58 133.478 102.58C134.178 102.58 134.696 102.43 135.032 102.132C135.368 101.833 135.536 101.306 135.536 100.55V99.5836C134.994 100.274 134.238 100.62 133.268 100.62C132.278 100.62 131.536 100.302 131.042 99.6676C130.556 99.0329 130.3 98.2302 130.272 97.2596L130.258 96.8676L130.272 96.4896C130.3 95.5282 130.556 94.7302 131.042 94.0956C131.536 93.4516 132.278 93.1296 133.268 93.1296C134.248 93.1296 135.013 93.4889 135.564 94.2076V93.6056C135.564 93.5122 135.592 93.4329 135.648 93.3676C135.713 93.3022 135.792 93.2696 135.886 93.2696H136.488C136.581 93.2696 136.656 93.3022 136.712 93.3676C136.777 93.4329 136.81 93.5122 136.81 93.6056V100.396C136.81 102.552 135.722 103.63 133.548 103.63ZM133.52 99.5276C134.173 99.5276 134.663 99.3176 134.99 98.8976C135.326 98.4682 135.508 97.9549 135.536 97.3576C135.545 97.2736 135.55 97.1102 135.55 96.8676C135.55 96.6342 135.545 96.4756 135.536 96.3916C135.508 95.7942 135.326 95.2856 134.99 94.8656C134.663 94.4362 134.173 94.2216 133.52 94.2216C132.848 94.2216 132.358 94.4362 132.05 94.8656C131.751 95.2856 131.588 95.8316 131.56 96.5036L131.546 96.8676L131.56 97.2456C131.588 97.9176 131.751 98.4682 132.05 98.8976C132.358 99.3176 132.848 99.5276 133.52 99.5276ZM141.412 100.69C140.768 100.69 140.222 100.587 139.774 100.382C139.335 100.167 139.008 99.9242 138.794 99.6536C138.579 99.3829 138.472 99.1589 138.472 98.9816C138.472 98.8882 138.504 98.8182 138.57 98.7716C138.635 98.7156 138.705 98.6876 138.78 98.6876H139.368C139.424 98.6876 139.466 98.6969 139.494 98.7156C139.531 98.7342 139.578 98.7762 139.634 98.8416C139.848 99.1029 140.086 99.3082 140.348 99.4576C140.618 99.6069 140.978 99.6816 141.426 99.6816C141.93 99.6816 142.331 99.5882 142.63 99.4016C142.938 99.2149 143.092 98.9442 143.092 98.5896C143.092 98.3562 143.026 98.1696 142.896 98.0296C142.765 97.8896 142.546 97.7636 142.238 97.6516C141.939 97.5396 141.491 97.4182 140.894 97.2876C140.082 97.1102 139.508 96.8536 139.172 96.5176C138.836 96.1816 138.668 95.7476 138.668 95.2156C138.668 94.8702 138.77 94.5389 138.976 94.2216C139.181 93.8949 139.484 93.6336 139.886 93.4376C140.296 93.2322 140.782 93.1296 141.342 93.1296C141.93 93.1296 142.429 93.2276 142.84 93.4236C143.26 93.6196 143.572 93.8482 143.778 94.1096C143.992 94.3709 144.1 94.5902 144.1 94.7676C144.1 94.8516 144.067 94.9216 144.002 94.9776C143.946 95.0336 143.876 95.0616 143.792 95.0616H143.26C143.129 95.0616 143.036 95.0102 142.98 94.9076C142.821 94.7302 142.686 94.5949 142.574 94.5016C142.471 94.3989 142.317 94.3149 142.112 94.2496C141.906 94.1749 141.65 94.1376 141.342 94.1376C140.884 94.1376 140.534 94.2356 140.292 94.4316C140.049 94.6182 139.928 94.8702 139.928 95.1876C139.928 95.3836 139.979 95.5516 140.082 95.6916C140.184 95.8222 140.38 95.9482 140.67 96.0696C140.959 96.1816 141.388 96.2982 141.958 96.4196C142.844 96.6062 143.47 96.8722 143.834 97.2176C144.207 97.5629 144.394 98.0062 144.394 98.5476C144.394 98.9489 144.277 99.3129 144.044 99.6396C143.82 99.9662 143.479 100.223 143.022 100.41C142.574 100.596 142.037 100.69 141.412 100.69Z" fill="#4F5665"/>
<path d="M11.2158 100.28C11.0845 100.28 10.9545 100.254 10.8332 100.204C10.7119 100.154 10.6016 100.08 10.5088 99.9876L6.2668 95.7446C6.17123 95.6524 6.09497 95.5421 6.04248 95.4201C5.98998 95.2982 5.9623 95.167 5.96106 95.0342C5.95981 94.9014 5.98502 94.7697 6.03521 94.6468C6.08541 94.5238 6.15958 94.4121 6.25341 94.3182C6.34723 94.2242 6.45883 94.1499 6.58169 94.0995C6.70455 94.0492 6.83621 94.0238 6.96899 94.0248C7.10177 94.0259 7.23301 94.0534 7.35505 94.1057C7.47709 94.158 7.58749 94.2341 7.6798 94.3296L11.2148 97.8646L17.5798 91.5016C17.7673 91.3139 18.0217 91.2085 18.2869 91.2084C18.5522 91.2083 18.8067 91.3136 18.9943 91.5011C19.1819 91.6886 19.2874 91.9429 19.2875 92.2082C19.2876 92.4735 19.1823 92.7279 18.9948 92.9156L11.9228 99.9876C11.83 100.08 11.7197 100.154 11.5984 100.204C11.4771 100.254 11.3471 100.28 11.2158 100.28Z" fill="#2FAB73"/>
<path d="M48.1542 140.55C47.9209 140.55 47.7762 140.428 47.7202 140.186L45.9142 131.184L45.8862 131.03C45.8862 130.955 45.9142 130.89 45.9702 130.834C46.0262 130.778 46.0915 130.75 46.1662 130.75H46.8522C47.0482 130.75 47.1602 130.829 47.1882 130.988L48.6302 138.296L50.1842 133.256C50.2402 133.032 50.3849 132.92 50.6182 132.92H51.1082C51.3322 132.92 51.4815 133.032 51.5562 133.256L53.0962 138.296L54.5382 130.988C54.5662 130.829 54.6829 130.75 54.8882 130.75H55.5602C55.6349 130.75 55.7002 130.778 55.7562 130.834C55.8122 130.89 55.8402 130.955 55.8402 131.03C55.8402 131.086 55.8355 131.137 55.8262 131.184L54.0062 140.186C53.9595 140.428 53.8149 140.55 53.5722 140.55H53.0682C52.8349 140.55 52.6809 140.433 52.6062 140.2L50.8702 134.81L49.1202 140.2C49.0549 140.433 48.9055 140.55 48.6722 140.55H48.1542ZM60.157 140.69C59.1303 140.69 58.337 140.4 57.777 139.822C57.2263 139.243 56.9323 138.473 56.895 137.512L56.881 136.91L56.895 136.308C56.9323 135.346 57.231 134.576 57.791 133.998C58.3603 133.419 59.149 133.13 60.157 133.13C61.165 133.13 61.949 133.419 62.509 133.998C63.0783 134.576 63.3817 135.346 63.419 136.308C63.4377 136.513 63.447 136.714 63.447 136.91C63.447 137.106 63.4377 137.306 63.419 137.512C63.3817 138.473 63.083 139.243 62.523 139.822C61.9723 140.4 61.1837 140.69 60.157 140.69ZM60.157 139.64C60.7543 139.64 61.2257 139.453 61.571 139.08C61.9257 138.697 62.117 138.151 62.145 137.442C62.1543 137.348 62.159 137.171 62.159 136.91C62.159 136.648 62.1543 136.471 62.145 136.378C62.117 135.668 61.9257 135.127 61.571 134.754C61.2257 134.371 60.7543 134.18 60.157 134.18C59.5597 134.18 59.0837 134.371 58.729 134.754C58.3837 135.127 58.197 135.668 58.169 136.378L58.155 136.91L58.169 137.442C58.197 138.151 58.3837 138.697 58.729 139.08C59.0837 139.453 59.5597 139.64 60.157 139.64ZM65.5367 140.55C65.4434 140.55 65.3641 140.522 65.2987 140.466C65.2427 140.4 65.2147 140.321 65.2147 140.228V133.606C65.2147 133.512 65.2427 133.433 65.2987 133.368C65.3641 133.302 65.4434 133.27 65.5367 133.27H66.1247C66.2274 133.27 66.3067 133.302 66.3627 133.368C66.4281 133.424 66.4607 133.503 66.4607 133.606V134.222C66.8434 133.587 67.4921 133.27 68.4067 133.27H68.9527C69.0554 133.27 69.1347 133.298 69.1907 133.354C69.2467 133.41 69.2747 133.489 69.2747 133.592V134.11C69.2747 134.203 69.2467 134.282 69.1907 134.348C69.1347 134.404 69.0554 134.432 68.9527 134.432H68.1547C67.6414 134.432 67.2354 134.581 66.9367 134.88C66.6474 135.178 66.5027 135.584 66.5027 136.098V140.228C66.5027 140.321 66.4701 140.4 66.4047 140.466C66.3394 140.522 66.2601 140.55 66.1667 140.55H65.5367ZM70.8144 140.55C70.7211 140.55 70.6417 140.522 70.5764 140.466C70.5204 140.4 70.4924 140.321 70.4924 140.228V130.932C70.4924 130.829 70.5204 130.75 70.5764 130.694C70.6417 130.638 70.7211 130.61 70.8144 130.61H71.4164C71.5097 130.61 71.5844 130.642 71.6404 130.708C71.7057 130.764 71.7384 130.838 71.7384 130.932V135.818L74.5384 133.508C74.6784 133.405 74.7764 133.34 74.8324 133.312C74.8884 133.284 74.9771 133.27 75.0984 133.27H75.7984C75.8824 133.27 75.9477 133.298 75.9944 133.354C76.0504 133.4 76.0784 133.47 76.0784 133.564C76.0784 133.648 76.0271 133.736 75.9244 133.83L72.6484 136.518L76.2744 139.99C76.3771 140.092 76.4284 140.181 76.4284 140.256C76.4284 140.34 76.4004 140.41 76.3444 140.466C76.2977 140.522 76.2324 140.55 76.1484 140.55H75.4624C75.3224 140.55 75.2197 140.536 75.1544 140.508C75.0984 140.48 75.0144 140.414 74.9024 140.312L71.7384 137.316V140.228C71.7384 140.321 71.7057 140.4 71.6404 140.466C71.5844 140.522 71.5097 140.55 71.4164 140.55H70.8144ZM80.0114 140.69C79.3674 140.69 78.8214 140.587 78.3734 140.382C77.9348 140.167 77.6081 139.924 77.3934 139.654C77.1788 139.383 77.0714 139.159 77.0714 138.982C77.0714 138.888 77.1041 138.818 77.1694 138.772C77.2348 138.716 77.3048 138.688 77.3794 138.688H77.9674C78.0234 138.688 78.0654 138.697 78.0934 138.716C78.1308 138.734 78.1774 138.776 78.2334 138.842C78.4481 139.103 78.6861 139.308 78.9474 139.458C79.2181 139.607 79.5774 139.682 80.0254 139.682C80.5294 139.682 80.9308 139.588 81.2294 139.402C81.5374 139.215 81.6914 138.944 81.6914 138.59C81.6914 138.356 81.6261 138.17 81.4954 138.03C81.3648 137.89 81.1454 137.764 80.8374 137.652C80.5388 137.54 80.0908 137.418 79.4934 137.288C78.6814 137.11 78.1074 136.854 77.7714 136.518C77.4354 136.182 77.2674 135.748 77.2674 135.216C77.2674 134.87 77.3701 134.539 77.5754 134.222C77.7808 133.895 78.0841 133.634 78.4854 133.438C78.8961 133.232 79.3814 133.13 79.9414 133.13C80.5294 133.13 81.0288 133.228 81.4394 133.424C81.8594 133.62 82.1721 133.848 82.3774 134.11C82.5921 134.371 82.6994 134.59 82.6994 134.768C82.6994 134.852 82.6668 134.922 82.6014 134.978C82.5454 135.034 82.4754 135.062 82.3914 135.062H81.8594C81.7288 135.062 81.6354 135.01 81.5794 134.908C81.4208 134.73 81.2854 134.595 81.1734 134.502C81.0708 134.399 80.9168 134.315 80.7114 134.25C80.5061 134.175 80.2494 134.138 79.9414 134.138C79.4841 134.138 79.1341 134.236 78.8914 134.432C78.6488 134.618 78.5274 134.87 78.5274 135.188C78.5274 135.384 78.5788 135.552 78.6814 135.692C78.7841 135.822 78.9801 135.948 79.2694 136.07C79.5588 136.182 79.9881 136.298 80.5574 136.42C81.4441 136.606 82.0694 136.872 82.4334 137.218C82.8068 137.563 82.9934 138.006 82.9934 138.548C82.9934 138.949 82.8768 139.313 82.6434 139.64C82.4194 139.966 82.0788 140.223 81.6214 140.41C81.1734 140.596 80.6368 140.69 80.0114 140.69ZM91.0281 140.69C90.0014 140.69 89.2081 140.4 88.6481 139.822C88.0974 139.243 87.8034 138.473 87.7661 137.512L87.7521 136.91L87.7661 136.308C87.8034 135.346 88.1021 134.576 88.6621 133.998C89.2314 133.419 90.0201 133.13 91.0281 133.13C92.0361 133.13 92.8201 133.419 93.3801 133.998C93.9494 134.576 94.2528 135.346 94.2901 136.308C94.3088 136.513 94.3181 136.714 94.3181 136.91C94.3181 137.106 94.3088 137.306 94.2901 137.512C94.2528 138.473 93.9541 139.243 93.3941 139.822C92.8434 140.4 92.0548 140.69 91.0281 140.69ZM91.0281 139.64C91.6254 139.64 92.0968 139.453 92.4421 139.08C92.7968 138.697 92.9881 138.151 93.0161 137.442C93.0254 137.348 93.0301 137.171 93.0301 136.91C93.0301 136.648 93.0254 136.471 93.0161 136.378C92.9881 135.668 92.7968 135.127 92.4421 134.754C92.0968 134.371 91.6254 134.18 91.0281 134.18C90.4308 134.18 89.9548 134.371 89.6001 134.754C89.2548 135.127 89.0681 135.668 89.0401 136.378L89.0261 136.91L89.0401 137.442C89.0681 138.151 89.2548 138.697 89.6001 139.08C89.9548 139.453 90.4308 139.64 91.0281 139.64ZM96.4078 140.55C96.3145 140.55 96.2352 140.522 96.1698 140.466C96.1138 140.4 96.0858 140.321 96.0858 140.228V133.592C96.0858 133.498 96.1138 133.424 96.1698 133.368C96.2352 133.302 96.3145 133.27 96.4078 133.27H97.0098C97.1125 133.27 97.1918 133.298 97.2478 133.354C97.3038 133.41 97.3318 133.489 97.3318 133.592V134.208C97.6118 133.862 97.9338 133.596 98.2978 133.41C98.6712 133.223 99.1332 133.13 99.6838 133.13C100.58 133.13 101.275 133.419 101.77 133.998C102.264 134.567 102.512 135.323 102.512 136.266V140.228C102.512 140.321 102.479 140.4 102.414 140.466C102.358 140.522 102.283 140.55 102.19 140.55H101.546C101.452 140.55 101.373 140.522 101.308 140.466C101.252 140.4 101.224 140.321 101.224 140.228V136.35C101.224 135.678 101.06 135.155 100.734 134.782C100.407 134.408 99.9405 134.222 99.3338 134.222C98.7365 134.222 98.2605 134.413 97.9058 134.796C97.5512 135.169 97.3738 135.687 97.3738 136.35V140.228C97.3738 140.321 97.3412 140.4 97.2758 140.466C97.2198 140.522 97.1452 140.55 97.0518 140.55H96.4078ZM107.108 140.55C107.033 140.55 106.968 140.522 106.912 140.466C106.856 140.41 106.828 140.344 106.828 140.27L106.856 140.116L110.328 131.058C110.402 130.852 110.552 130.75 110.776 130.75H111.672C111.896 130.75 112.045 130.852 112.12 131.058L115.592 140.116L115.62 140.27C115.62 140.344 115.587 140.41 115.522 140.466C115.466 140.522 115.4 140.55 115.326 140.55H114.668C114.574 140.55 114.495 140.526 114.43 140.48C114.374 140.424 114.336 140.368 114.318 140.312L113.534 138.296H108.9L108.13 140.312C108.055 140.47 107.938 140.55 107.78 140.55H107.108ZM109.306 137.134H113.142L111.224 132.108L109.306 137.134ZM117.285 140.55C117.192 140.55 117.112 140.522 117.047 140.466C116.991 140.4 116.963 140.321 116.963 140.228V130.932C116.963 130.829 116.991 130.75 117.047 130.694C117.112 130.638 117.192 130.61 117.285 130.61H117.901C117.994 130.61 118.069 130.642 118.125 130.708C118.19 130.764 118.223 130.838 118.223 130.932V140.228C118.223 140.321 118.19 140.4 118.125 140.466C118.069 140.522 117.994 140.55 117.901 140.55H117.285ZM120.662 140.55C120.569 140.55 120.489 140.522 120.424 140.466C120.368 140.4 120.34 140.321 120.34 140.228V130.932C120.34 130.829 120.368 130.75 120.424 130.694C120.489 130.638 120.569 130.61 120.662 130.61H121.278C121.371 130.61 121.446 130.642 121.502 130.708C121.567 130.764 121.6 130.838 121.6 130.932V140.228C121.6 140.321 121.567 140.4 121.502 140.466C121.446 140.522 121.371 140.55 121.278 140.55H120.662ZM127.638 140.55C127.545 140.55 127.47 140.522 127.414 140.466C127.358 140.4 127.33 140.321 127.33 140.228V131.086C127.33 130.983 127.358 130.904 127.414 130.848C127.47 130.782 127.545 130.75 127.638 130.75H130.802C132.212 130.75 133.229 131.067 133.854 131.702C134.48 132.327 134.802 133.274 134.82 134.544C134.83 134.814 134.834 135.178 134.834 135.636C134.834 136.093 134.83 136.462 134.82 136.742C134.802 137.628 134.657 138.352 134.386 138.912C134.125 139.462 133.71 139.873 133.14 140.144C132.571 140.414 131.815 140.55 130.872 140.55H127.638ZM130.802 139.388C131.456 139.388 131.974 139.299 132.356 139.122C132.748 138.935 133.028 138.65 133.196 138.268C133.374 137.876 133.472 137.348 133.49 136.686C133.509 136.126 133.518 135.776 133.518 135.636C133.518 135.486 133.509 135.141 133.49 134.6C133.472 133.666 133.248 132.985 132.818 132.556C132.398 132.117 131.703 131.898 130.732 131.898H128.646V139.388H130.802ZM139.671 140.69C138.719 140.69 137.958 140.396 137.389 139.808C136.82 139.21 136.507 138.398 136.451 137.372L136.437 136.896L136.451 136.434C136.507 135.426 136.82 134.623 137.389 134.026C137.958 133.428 138.719 133.13 139.671 133.13C140.698 133.13 141.491 133.456 142.051 134.11C142.62 134.763 142.905 135.65 142.905 136.77V137.022C142.905 137.115 142.872 137.194 142.807 137.26C142.751 137.316 142.676 137.344 142.583 137.344H137.725V137.47C137.753 138.076 137.94 138.594 138.285 139.024C138.63 139.453 139.088 139.668 139.657 139.668C140.096 139.668 140.45 139.584 140.721 139.416C141.001 139.238 141.211 139.056 141.351 138.87C141.435 138.758 141.5 138.692 141.547 138.674C141.594 138.646 141.673 138.632 141.785 138.632H142.401C142.485 138.632 142.555 138.655 142.611 138.702C142.676 138.748 142.709 138.809 142.709 138.884C142.709 139.089 142.583 139.336 142.331 139.626C142.079 139.915 141.72 140.167 141.253 140.382C140.796 140.587 140.268 140.69 139.671 140.69ZM141.631 136.392V136.35C141.631 135.696 141.454 135.164 141.099 134.754C140.744 134.343 140.268 134.138 139.671 134.138C139.064 134.138 138.588 134.343 138.243 134.754C137.898 135.164 137.725 135.696 137.725 136.35V136.392H141.631ZM146.895 140.55C146.653 140.55 146.48 140.433 146.377 140.2L143.773 133.704C143.764 133.676 143.759 133.629 143.759 133.564C143.759 133.48 143.787 133.41 143.843 133.354C143.899 133.298 143.965 133.27 144.039 133.27H144.683C144.833 133.27 144.945 133.344 145.019 133.494L147.175 139.08L149.331 133.494C149.35 133.438 149.387 133.386 149.443 133.34C149.509 133.293 149.583 133.27 149.667 133.27H150.311C150.386 133.27 150.451 133.298 150.507 133.354C150.563 133.41 150.591 133.48 150.591 133.564L150.563 133.704L147.973 140.2C147.871 140.433 147.698 140.55 147.455 140.55H146.895ZM152.296 131.898C152.202 131.898 152.123 131.87 152.058 131.814C152.002 131.748 151.974 131.669 151.974 131.576V130.848C151.974 130.754 152.002 130.675 152.058 130.61C152.123 130.544 152.202 130.512 152.296 130.512H153.122C153.215 130.512 153.294 130.544 153.36 130.61C153.425 130.675 153.458 130.754 153.458 130.848V131.576C153.458 131.669 153.425 131.748 153.36 131.814C153.294 131.87 153.215 131.898 153.122 131.898H152.296ZM152.408 140.55C152.314 140.55 152.235 140.522 152.17 140.466C152.114 140.4 152.086 140.321 152.086 140.228V133.592C152.086 133.498 152.114 133.424 152.17 133.368C152.235 133.302 152.314 133.27 152.408 133.27H153.024C153.117 133.27 153.192 133.302 153.248 133.368C153.313 133.424 153.346 133.498 153.346 133.592V140.228C153.346 140.321 153.313 140.4 153.248 140.466C153.192 140.522 153.117 140.55 153.024 140.55H152.408ZM158.361 140.69C157.362 140.69 156.583 140.41 156.023 139.85C155.463 139.28 155.169 138.487 155.141 137.47L155.127 136.91L155.141 136.35C155.169 135.332 155.463 134.544 156.023 133.984C156.583 133.414 157.362 133.13 158.361 133.13C159.033 133.13 159.598 133.251 160.055 133.494C160.522 133.727 160.867 134.021 161.091 134.376C161.324 134.73 161.45 135.085 161.469 135.44C161.478 135.524 161.446 135.598 161.371 135.664C161.306 135.729 161.231 135.762 161.147 135.762H160.531C160.438 135.762 160.368 135.743 160.321 135.706C160.274 135.659 160.228 135.58 160.181 135.468C160.013 135.01 159.78 134.688 159.481 134.502C159.192 134.306 158.823 134.208 158.375 134.208C157.787 134.208 157.32 134.39 156.975 134.754C156.63 135.118 156.443 135.673 156.415 136.42L156.401 136.91L156.415 137.4C156.443 138.146 156.63 138.702 156.975 139.066C157.32 139.43 157.787 139.612 158.375 139.612C158.832 139.612 159.206 139.518 159.495 139.332C159.784 139.136 160.013 138.809 160.181 138.352C160.228 138.24 160.274 138.165 160.321 138.128C160.368 138.081 160.438 138.058 160.531 138.058H161.147C161.231 138.058 161.306 138.09 161.371 138.156C161.446 138.221 161.478 138.296 161.469 138.38C161.45 138.725 161.324 139.075 161.091 139.43C160.867 139.784 160.522 140.083 160.055 140.326C159.598 140.568 159.033 140.69 158.361 140.69ZM166.03 140.69C165.078 140.69 164.318 140.396 163.748 139.808C163.179 139.21 162.866 138.398 162.81 137.372L162.796 136.896L162.81 136.434C162.866 135.426 163.179 134.623 163.748 134.026C164.318 133.428 165.078 133.13 166.03 133.13C167.057 133.13 167.85 133.456 168.41 134.11C168.98 134.763 169.264 135.65 169.264 136.77V137.022C169.264 137.115 169.232 137.194 169.166 137.26C169.11 137.316 169.036 137.344 168.942 137.344H164.084V137.47C164.112 138.076 164.299 138.594 164.644 139.024C164.99 139.453 165.447 139.668 166.016 139.668C166.455 139.668 166.81 139.584 167.08 139.416C167.36 139.238 167.57 139.056 167.71 138.87C167.794 138.758 167.86 138.692 167.906 138.674C167.953 138.646 168.032 138.632 168.144 138.632H168.76C168.844 138.632 168.914 138.655 168.97 138.702C169.036 138.748 169.068 138.809 169.068 138.884C169.068 139.089 168.942 139.336 168.69 139.626C168.438 139.915 168.079 140.167 167.612 140.382C167.155 140.587 166.628 140.69 166.03 140.69ZM167.99 136.392V136.35C167.99 135.696 167.813 135.164 167.458 134.754C167.104 134.343 166.628 134.138 166.03 134.138C165.424 134.138 164.948 134.343 164.602 134.754C164.257 135.164 164.084 135.696 164.084 136.35V136.392H167.99ZM173.459 140.69C172.815 140.69 172.269 140.587 171.821 140.382C171.382 140.167 171.055 139.924 170.841 139.654C170.626 139.383 170.519 139.159 170.519 138.982C170.519 138.888 170.551 138.818 170.617 138.772C170.682 138.716 170.752 138.688 170.827 138.688H171.415C171.471 138.688 171.513 138.697 171.541 138.716C171.578 138.734 171.625 138.776 171.681 138.842C171.895 139.103 172.133 139.308 172.395 139.458C172.665 139.607 173.025 139.682 173.473 139.682C173.977 139.682 174.378 139.588 174.677 139.402C174.985 139.215 175.139 138.944 175.139 138.59C175.139 138.356 175.073 138.17 174.943 138.03C174.812 137.89 174.593 137.764 174.285 137.652C173.986 137.54 173.538 137.418 172.941 137.288C172.129 137.11 171.555 136.854 171.219 136.518C170.883 136.182 170.715 135.748 170.715 135.216C170.715 134.87 170.817 134.539 171.023 134.222C171.228 133.895 171.531 133.634 171.933 133.438C172.343 133.232 172.829 133.13 173.389 133.13C173.977 133.13 174.476 133.228 174.887 133.424C175.307 133.62 175.619 133.848 175.825 134.11C176.039 134.371 176.147 134.59 176.147 134.768C176.147 134.852 176.114 134.922 176.049 134.978C175.993 135.034 175.923 135.062 175.839 135.062H175.307C175.176 135.062 175.083 135.01 175.027 134.908C174.868 134.73 174.733 134.595 174.621 134.502C174.518 134.399 174.364 134.315 174.159 134.25C173.953 134.175 173.697 134.138 173.389 134.138C172.931 134.138 172.581 134.236 172.339 134.432C172.096 134.618 171.975 134.87 171.975 135.188C171.975 135.384 172.026 135.552 172.129 135.692C172.231 135.822 172.427 135.948 172.717 136.07C173.006 136.182 173.435 136.298 174.005 136.42C174.891 136.606 175.517 136.872 175.881 137.218C176.254 137.563 176.441 138.006 176.441 138.548C176.441 138.949 176.324 139.313 176.091 139.64C175.867 139.966 175.526 140.223 175.069 140.41C174.621 140.596 174.084 140.69 173.459 140.69Z" fill="#4F5665"/>
<path d="M11.2158 140.28C11.0845 140.28 10.9545 140.254 10.8332 140.204C10.7119 140.154 10.6016 140.08 10.5088 139.988L6.2668 135.745C6.17123 135.652 6.09497 135.542 6.04248 135.42C5.98998 135.298 5.9623 135.167 5.96106 135.034C5.95981 134.901 5.98502 134.77 6.03521 134.647C6.08541 134.524 6.15958 134.412 6.25341 134.318C6.34723 134.224 6.45883 134.15 6.58169 134.1C6.70455 134.049 6.83621 134.024 6.96899 134.025C7.10177 134.026 7.23301 134.053 7.35505 134.106C7.47709 134.158 7.58749 134.234 7.6798 134.33L11.2148 137.865L17.5798 131.502C17.7673 131.314 18.0217 131.208 18.2869 131.208C18.5522 131.208 18.8067 131.314 18.9943 131.501C19.1819 131.689 19.2874 131.943 19.2875 132.208C19.2876 132.473 19.1823 132.728 18.9948 132.916L11.9228 139.988C11.83 140.08 11.7197 140.154 11.5984 140.204C11.4771 140.254 11.3471 140.28 11.2158 140.28Z" fill="#2FAB73"/>
<path d="M50.0022 180.69C48.7609 180.69 47.8135 180.354 47.1602 179.682C46.5162 179 46.1709 178.072 46.1242 176.896C46.1149 176.644 46.1102 176.233 46.1102 175.664C46.1102 175.085 46.1149 174.665 46.1242 174.404C46.1709 173.228 46.5162 172.304 47.1602 171.632C47.8135 170.95 48.7609 170.61 50.0022 170.61C50.8329 170.61 51.5375 170.759 52.1162 171.058C52.6949 171.347 53.1289 171.73 53.4182 172.206C53.7169 172.682 53.8802 173.19 53.9082 173.732C53.9082 173.816 53.8755 173.886 53.8102 173.942C53.7542 173.988 53.6842 174.012 53.6002 174.012H52.9002C52.8069 174.012 52.7322 173.988 52.6762 173.942C52.6202 173.895 52.5782 173.816 52.5502 173.704C52.3915 172.985 52.1022 172.481 51.6822 172.192C51.2715 171.902 50.7115 171.758 50.0022 171.758C48.3782 171.758 47.5335 172.663 47.4682 174.474C47.4589 174.726 47.4542 175.113 47.4542 175.636C47.4542 176.158 47.4589 176.555 47.4682 176.826C47.5335 178.627 48.3782 179.528 50.0022 179.528C50.7022 179.528 51.2622 179.383 51.6822 179.094C52.1022 178.804 52.3915 178.305 52.5502 177.596C52.5782 177.484 52.6202 177.404 52.6762 177.358C52.7322 177.311 52.8069 177.288 52.9002 177.288H53.6002C53.6842 177.288 53.7542 177.316 53.8102 177.372C53.8755 177.418 53.9082 177.484 53.9082 177.568C53.8802 178.109 53.7169 178.618 53.4182 179.094C53.1289 179.57 52.6949 179.957 52.1162 180.256C51.5375 180.545 50.8329 180.69 50.0022 180.69ZM58.5847 180.69C57.5581 180.69 56.7647 180.4 56.2047 179.822C55.6541 179.243 55.3601 178.473 55.3227 177.512L55.3087 176.91L55.3227 176.308C55.3601 175.346 55.6587 174.576 56.2187 173.998C56.7881 173.419 57.5767 173.13 58.5847 173.13C59.5927 173.13 60.3767 173.419 60.9367 173.998C61.5061 174.576 61.8094 175.346 61.8468 176.308C61.8654 176.513 61.8747 176.714 61.8747 176.91C61.8747 177.106 61.8654 177.306 61.8468 177.512C61.8094 178.473 61.5107 179.243 60.9507 179.822C60.4001 180.4 59.6114 180.69 58.5847 180.69ZM58.5847 179.64C59.1821 179.64 59.6534 179.453 59.9987 179.08C60.3534 178.697 60.5447 178.151 60.5727 177.442C60.5821 177.348 60.5867 177.171 60.5867 176.91C60.5867 176.648 60.5821 176.471 60.5727 176.378C60.5447 175.668 60.3534 175.127 59.9987 174.754C59.6534 174.371 59.1821 174.18 58.5847 174.18C57.9874 174.18 57.5114 174.371 57.1567 174.754C56.8114 175.127 56.6247 175.668 56.5967 176.378L56.5827 176.91L56.5967 177.442C56.6247 178.151 56.8114 178.697 57.1567 179.08C57.5114 179.453 57.9874 179.64 58.5847 179.64ZM63.9645 180.55C63.8711 180.55 63.7918 180.522 63.7265 180.466C63.6705 180.4 63.6425 180.321 63.6425 180.228V173.592C63.6425 173.498 63.6705 173.424 63.7265 173.368C63.7918 173.302 63.8711 173.27 63.9645 173.27H64.5665C64.6691 173.27 64.7485 173.298 64.8045 173.354C64.8605 173.41 64.8885 173.489 64.8885 173.592V174.208C65.1685 173.862 65.4905 173.596 65.8545 173.41C66.2278 173.223 66.6898 173.13 67.2405 173.13C68.1365 173.13 68.8318 173.419 69.3265 173.998C69.8211 174.567 70.0685 175.323 70.0685 176.266V180.228C70.0685 180.321 70.0358 180.4 69.9705 180.466C69.9145 180.522 69.8398 180.55 69.7465 180.55H69.1025C69.0091 180.55 68.9298 180.522 68.8645 180.466C68.8085 180.4 68.7805 180.321 68.7805 180.228V176.35C68.7805 175.678 68.6171 175.155 68.2905 174.782C67.9638 174.408 67.4971 174.222 66.8905 174.222C66.2931 174.222 65.8171 174.413 65.4625 174.796C65.1078 175.169 64.9305 175.687 64.9305 176.35V180.228C64.9305 180.321 64.8978 180.4 64.8325 180.466C64.7765 180.522 64.7018 180.55 64.6085 180.55H63.9645ZM72.4137 180.55C72.3204 180.55 72.241 180.522 72.1757 180.466C72.1197 180.4 72.0917 180.321 72.0917 180.228V173.592C72.0917 173.498 72.1197 173.424 72.1757 173.368C72.241 173.302 72.3204 173.27 72.4137 173.27H73.0157C73.1184 173.27 73.1977 173.298 73.2537 173.354C73.3097 173.41 73.3377 173.489 73.3377 173.592V174.208C73.6177 173.862 73.9397 173.596 74.3037 173.41C74.677 173.223 75.139 173.13 75.6897 173.13C76.5857 173.13 77.281 173.419 77.7757 173.998C78.2704 174.567 78.5177 175.323 78.5177 176.266V180.228C78.5177 180.321 78.485 180.4 78.4197 180.466C78.3637 180.522 78.289 180.55 78.1957 180.55H77.5517C77.4584 180.55 77.379 180.522 77.3137 180.466C77.2577 180.4 77.2297 180.321 77.2297 180.228V176.35C77.2297 175.678 77.0664 175.155 76.7397 174.782C76.413 174.408 75.9464 174.222 75.3397 174.222C74.7424 174.222 74.2664 174.413 73.9117 174.796C73.557 175.169 73.3797 175.687 73.3797 176.35V180.228C73.3797 180.321 73.347 180.4 73.2817 180.466C73.2257 180.522 73.151 180.55 73.0577 180.55H72.4137ZM83.4249 180.69C82.4729 180.69 81.7122 180.396 81.1429 179.808C80.5736 179.21 80.2609 178.398 80.2049 177.372L80.1909 176.896L80.2049 176.434C80.2609 175.426 80.5736 174.623 81.1429 174.026C81.7122 173.428 82.4729 173.13 83.4249 173.13C84.4516 173.13 85.2449 173.456 85.8049 174.11C86.3742 174.763 86.6589 175.65 86.6589 176.77V177.022C86.6589 177.115 86.6262 177.194 86.5609 177.26C86.5049 177.316 86.4302 177.344 86.3369 177.344H81.4789V177.47C81.5069 178.076 81.6936 178.594 82.0389 179.024C82.3842 179.453 82.8416 179.668 83.4109 179.668C83.8496 179.668 84.2042 179.584 84.4749 179.416C84.7549 179.238 84.9649 179.056 85.1049 178.87C85.1889 178.758 85.2542 178.692 85.3009 178.674C85.3476 178.646 85.4269 178.632 85.5389 178.632H86.1549C86.2389 178.632 86.3089 178.655 86.3649 178.702C86.4302 178.748 86.4629 178.809 86.4629 178.884C86.4629 179.089 86.3369 179.336 86.0849 179.626C85.8329 179.915 85.4736 180.167 85.0069 180.382C84.5496 180.587 84.0222 180.69 83.4249 180.69ZM85.3849 176.392V176.35C85.3849 175.696 85.2076 175.164 84.8529 174.754C84.4982 174.343 84.0222 174.138 83.4249 174.138C82.8182 174.138 82.3422 174.343 81.9969 174.754C81.6516 175.164 81.4789 175.696 81.4789 176.35V176.392H85.3849ZM91.2732 180.69C90.2746 180.69 89.4952 180.41 88.9352 179.85C88.3752 179.28 88.0812 178.487 88.0532 177.47L88.0392 176.91L88.0532 176.35C88.0812 175.332 88.3752 174.544 88.9352 173.984C89.4952 173.414 90.2746 173.13 91.2732 173.13C91.9452 173.13 92.5099 173.251 92.9672 173.494C93.4339 173.727 93.7792 174.021 94.0032 174.376C94.2366 174.73 94.3626 175.085 94.3812 175.44C94.3906 175.524 94.3579 175.598 94.2832 175.664C94.2179 175.729 94.1432 175.762 94.0592 175.762H93.4432C93.3499 175.762 93.2799 175.743 93.2332 175.706C93.1866 175.659 93.1399 175.58 93.0932 175.468C92.9252 175.01 92.6919 174.688 92.3932 174.502C92.1039 174.306 91.7352 174.208 91.2872 174.208C90.6992 174.208 90.2326 174.39 89.8872 174.754C89.5419 175.118 89.3552 175.673 89.3272 176.42L89.3132 176.91L89.3272 177.4C89.3552 178.146 89.5419 178.702 89.8872 179.066C90.2326 179.43 90.6992 179.612 91.2872 179.612C91.7446 179.612 92.1179 179.518 92.4072 179.332C92.6966 179.136 92.9252 178.809 93.0932 178.352C93.1399 178.24 93.1866 178.165 93.2332 178.128C93.2799 178.081 93.3499 178.058 93.4432 178.058H94.0592C94.1432 178.058 94.2179 178.09 94.2832 178.156C94.3579 178.221 94.3906 178.296 94.3812 178.38C94.3626 178.725 94.2366 179.075 94.0032 179.43C93.7792 179.784 93.4339 180.083 92.9672 180.326C92.5099 180.568 91.9452 180.69 91.2732 180.69ZM98.8585 180.55C97.4118 180.55 96.6885 179.733 96.6885 178.1V174.348H95.5825C95.4892 174.348 95.4145 174.32 95.3585 174.264C95.3025 174.208 95.2745 174.133 95.2745 174.04V173.592C95.2745 173.498 95.3025 173.424 95.3585 173.368C95.4145 173.302 95.4892 173.27 95.5825 173.27H96.6885V170.932C96.6885 170.838 96.7165 170.764 96.7725 170.708C96.8285 170.642 96.9032 170.61 96.9965 170.61H97.6125C97.7058 170.61 97.7805 170.642 97.8365 170.708C97.9018 170.764 97.9345 170.838 97.9345 170.932V173.27H99.6705C99.7638 173.27 99.8385 173.302 99.8945 173.368C99.9598 173.424 99.9925 173.498 99.9925 173.592V174.04C99.9925 174.133 99.9598 174.208 99.8945 174.264C99.8385 174.32 99.7638 174.348 99.6705 174.348H97.9345V178.002C97.9345 178.478 98.0092 178.837 98.1585 179.08C98.3172 179.322 98.5832 179.444 98.9565 179.444H99.8105C99.9038 179.444 99.9785 179.476 100.034 179.542C100.09 179.598 100.118 179.672 100.118 179.766V180.228C100.118 180.321 100.09 180.4 100.034 180.466C99.9785 180.522 99.9038 180.55 99.8105 180.55H98.8585ZM104.059 180.55C103.984 180.55 103.919 180.522 103.863 180.466C103.807 180.41 103.779 180.344 103.779 180.27L103.807 180.116L107.279 171.058C107.353 170.852 107.503 170.75 107.727 170.75H108.623C108.847 170.75 108.996 170.852 109.071 171.058L112.543 180.116L112.571 180.27C112.571 180.344 112.538 180.41 112.473 180.466C112.417 180.522 112.351 180.55 112.277 180.55H111.619C111.525 180.55 111.446 180.526 111.381 180.48C111.325 180.424 111.287 180.368 111.269 180.312L110.485 178.296H105.851L105.081 180.312C105.006 180.47 104.889 180.55 104.731 180.55H104.059ZM106.257 177.134H110.093L108.175 172.108L106.257 177.134ZM114.222 180.55C114.129 180.55 114.05 180.522 113.984 180.466C113.928 180.4 113.9 180.321 113.9 180.228V173.592C113.9 173.498 113.928 173.424 113.984 173.368C114.05 173.302 114.129 173.27 114.222 173.27H114.824C114.927 173.27 115.006 173.298 115.062 173.354C115.118 173.41 115.146 173.489 115.146 173.592V174.208C115.426 173.862 115.748 173.596 116.112 173.41C116.486 173.223 116.948 173.13 117.498 173.13C118.394 173.13 119.09 173.419 119.584 173.998C120.079 174.567 120.326 175.323 120.326 176.266V180.228C120.326 180.321 120.294 180.4 120.228 180.466C120.172 180.522 120.098 180.55 120.004 180.55H119.36C119.267 180.55 119.188 180.522 119.122 180.466C119.066 180.4 119.038 180.321 119.038 180.228V176.35C119.038 175.678 118.875 175.155 118.548 174.782C118.222 174.408 117.755 174.222 117.148 174.222C116.551 174.222 116.075 174.413 115.72 174.796C115.366 175.169 115.188 175.687 115.188 176.35V180.228C115.188 180.321 115.156 180.4 115.09 180.466C115.034 180.522 114.96 180.55 114.866 180.55H114.222ZM123.405 183.21C123.321 183.21 123.251 183.182 123.195 183.126C123.139 183.07 123.111 183.004 123.111 182.93C123.111 182.902 123.134 182.818 123.181 182.678L124.273 180.116L121.599 173.802C121.543 173.69 121.515 173.61 121.515 173.564C121.524 173.48 121.557 173.41 121.613 173.354C121.669 173.298 121.734 173.27 121.809 173.27H122.453C122.602 173.27 122.714 173.344 122.789 173.494L124.945 178.646L127.157 173.494C127.231 173.344 127.343 173.27 127.493 173.27H128.123C128.197 173.27 128.263 173.298 128.319 173.354C128.375 173.41 128.403 173.475 128.403 173.55C128.403 173.615 128.379 173.699 128.333 173.802L124.371 182.986C124.324 183.06 124.273 183.116 124.217 183.154C124.17 183.191 124.105 183.21 124.021 183.21H123.405ZM131.746 180.55C131.616 180.55 131.518 180.522 131.452 180.466C131.387 180.41 131.336 180.321 131.298 180.2L129.31 173.704L129.282 173.564C129.282 173.48 129.31 173.41 129.366 173.354C129.422 173.298 129.492 173.27 129.576 173.27H130.15C130.244 173.27 130.318 173.298 130.374 173.354C130.44 173.4 130.477 173.447 130.486 173.494L132.068 178.842L133.748 173.564C133.767 173.489 133.809 173.424 133.874 173.368C133.94 173.302 134.028 173.27 134.14 173.27H134.588C134.7 173.27 134.789 173.302 134.854 173.368C134.92 173.424 134.962 173.489 134.98 173.564L136.66 178.842L138.242 173.494C138.252 173.447 138.284 173.4 138.34 173.354C138.406 173.298 138.485 173.27 138.578 173.27H139.152C139.236 173.27 139.306 173.298 139.362 173.354C139.418 173.41 139.446 173.48 139.446 173.564L139.418 173.704L137.43 180.2C137.393 180.321 137.342 180.41 137.276 180.466C137.211 180.522 137.113 180.55 136.982 180.55H136.478C136.236 180.55 136.077 180.433 136.002 180.2L134.364 175.132L132.726 180.2C132.652 180.433 132.493 180.55 132.25 180.55H131.746ZM142.823 180.69C142.365 180.69 141.941 180.596 141.549 180.41C141.166 180.223 140.858 179.971 140.625 179.654C140.401 179.327 140.289 178.968 140.289 178.576C140.289 177.96 140.541 177.456 141.045 177.064C141.549 176.672 142.235 176.41 143.103 176.28L145.203 175.986V175.58C145.203 174.618 144.647 174.138 143.537 174.138C143.107 174.138 142.762 174.226 142.501 174.404C142.239 174.572 142.048 174.772 141.927 175.006C141.889 175.099 141.847 175.164 141.801 175.202C141.763 175.23 141.707 175.244 141.633 175.244H141.087C141.003 175.244 140.928 175.216 140.863 175.16C140.807 175.094 140.779 175.02 140.779 174.936C140.779 174.721 140.877 174.474 141.073 174.194C141.278 173.904 141.591 173.657 142.011 173.452C142.431 173.237 142.944 173.13 143.551 173.13C144.596 173.13 145.343 173.372 145.791 173.858C146.248 174.343 146.477 174.95 146.477 175.678V180.228C146.477 180.321 146.444 180.4 146.379 180.466C146.323 180.522 146.248 180.55 146.155 180.55H145.539C145.445 180.55 145.371 180.522 145.315 180.466C145.259 180.4 145.231 180.321 145.231 180.228V179.612C145.025 179.92 144.727 180.176 144.335 180.382C143.943 180.587 143.439 180.69 142.823 180.69ZM143.103 179.668C143.719 179.668 144.223 179.467 144.615 179.066C145.007 178.664 145.203 178.081 145.203 177.316V176.924L143.565 177.162C142.893 177.255 142.384 177.414 142.039 177.638C141.693 177.862 141.521 178.142 141.521 178.478C141.521 178.86 141.675 179.154 141.983 179.36C142.3 179.565 142.673 179.668 143.103 179.668ZM148.826 180.55C148.732 180.55 148.653 180.522 148.588 180.466C148.532 180.4 148.504 180.321 148.504 180.228V173.606C148.504 173.512 148.532 173.433 148.588 173.368C148.653 173.302 148.732 173.27 148.826 173.27H149.414C149.516 173.27 149.596 173.302 149.652 173.368C149.717 173.424 149.75 173.503 149.75 173.606V174.222C150.132 173.587 150.781 173.27 151.696 173.27H152.242C152.344 173.27 152.424 173.298 152.48 173.354C152.536 173.41 152.564 173.489 152.564 173.592V174.11C152.564 174.203 152.536 174.282 152.48 174.348C152.424 174.404 152.344 174.432 152.242 174.432H151.444C150.93 174.432 150.524 174.581 150.226 174.88C149.936 175.178 149.792 175.584 149.792 176.098V180.228C149.792 180.321 149.759 180.4 149.694 180.466C149.628 180.522 149.549 180.55 149.456 180.55H148.826ZM156.515 180.69C155.563 180.69 154.802 180.396 154.233 179.808C153.663 179.21 153.351 178.398 153.295 177.372L153.281 176.896L153.295 176.434C153.351 175.426 153.663 174.623 154.233 174.026C154.802 173.428 155.563 173.13 156.515 173.13C157.541 173.13 158.335 173.456 158.895 174.11C159.464 174.763 159.749 175.65 159.749 176.77V177.022C159.749 177.115 159.716 177.194 159.651 177.26C159.595 177.316 159.52 177.344 159.427 177.344H154.569V177.47C154.597 178.076 154.783 178.594 155.129 179.024C155.474 179.453 155.931 179.668 156.501 179.668C156.939 179.668 157.294 179.584 157.565 179.416C157.845 179.238 158.055 179.056 158.195 178.87C158.279 178.758 158.344 178.692 158.391 178.674C158.437 178.646 158.517 178.632 158.629 178.632H159.245C159.329 178.632 159.399 178.655 159.455 178.702C159.52 178.748 159.553 178.809 159.553 178.884C159.553 179.089 159.427 179.336 159.175 179.626C158.923 179.915 158.563 180.167 158.097 180.382C157.639 180.587 157.112 180.69 156.515 180.69ZM158.475 176.392V176.35C158.475 175.696 158.297 175.164 157.943 174.754C157.588 174.343 157.112 174.138 156.515 174.138C155.908 174.138 155.432 174.343 155.087 174.754C154.741 175.164 154.569 175.696 154.569 176.35V176.392H158.475Z" fill="#4F5665"/>
<path d="M11.7562 180.28C11.6249 180.28 11.4949 180.254 11.3736 180.204C11.2523 180.154 11.142 180.08 11.0492 179.988L6.80721 175.745C6.71163 175.652 6.63537 175.542 6.58288 175.42C6.53039 175.298 6.50271 175.167 6.50146 175.034C6.50022 174.901 6.52543 174.77 6.57562 174.647C6.62581 174.524 6.69999 174.412 6.79381 174.318C6.88764 174.224 6.99924 174.15 7.1221 174.1C7.24495 174.049 7.37662 174.024 7.50939 174.025C7.64217 174.026 7.77341 174.053 7.89545 174.106C8.01749 174.158 8.12789 174.234 8.22021 174.33L11.7552 177.865L18.1202 171.502C18.3077 171.314 18.5621 171.208 18.8274 171.208C19.0926 171.208 19.3471 171.314 19.5347 171.501C19.7223 171.689 19.8278 171.943 19.8279 172.208C19.828 172.473 19.7227 172.728 19.5352 172.916L12.4632 179.988C12.3704 180.08 12.2601 180.154 12.1388 180.204C12.0175 180.254 11.8875 180.28 11.7562 180.28Z" fill="#2FAB73"/>
<path d="M50.1842 20.6896C48.9802 20.6896 48.0515 20.3676 47.3982 19.7236C46.7449 19.0702 46.4182 18.0856 46.4182 16.7696V11.0856C46.4182 10.9829 46.4462 10.9036 46.5022 10.8476C46.5582 10.7822 46.6329 10.7496 46.7262 10.7496H47.3982C47.5009 10.7496 47.5802 10.7822 47.6362 10.8476C47.7015 10.9036 47.7342 10.9829 47.7342 11.0856V16.7976C47.7342 17.7122 47.9442 18.3936 48.3642 18.8416C48.7935 19.2896 49.4002 19.5136 50.1842 19.5136C50.9589 19.5136 51.5562 19.2896 51.9762 18.8416C52.4055 18.3842 52.6202 17.7029 52.6202 16.7976V11.0856C52.6202 10.9829 52.6482 10.9036 52.7042 10.8476C52.7602 10.7822 52.8395 10.7496 52.9422 10.7496H53.6142C53.7075 10.7496 53.7822 10.7822 53.8382 10.8476C53.9035 10.9036 53.9362 10.9829 53.9362 11.0856V16.7696C53.9362 18.0856 53.6095 19.0702 52.9562 19.7236C52.3122 20.3676 51.3882 20.6896 50.1842 20.6896ZM56.4449 20.5496C56.3516 20.5496 56.2723 20.5216 56.2069 20.4656C56.1509 20.4002 56.1229 20.3209 56.1229 20.2276V13.5916C56.1229 13.4982 56.1509 13.4236 56.2069 13.3676C56.2723 13.3022 56.3516 13.2696 56.4449 13.2696H57.0469C57.1496 13.2696 57.2289 13.2976 57.2849 13.3536C57.3409 13.4096 57.3689 13.4889 57.3689 13.5916V14.2076C57.6489 13.8622 57.9709 13.5962 58.3349 13.4096C58.7083 13.2229 59.1703 13.1296 59.7209 13.1296C60.6169 13.1296 61.3123 13.4189 61.8069 13.9976C62.3016 14.5669 62.5489 15.3229 62.5489 16.2656V20.2276C62.5489 20.3209 62.5163 20.4002 62.4509 20.4656C62.3949 20.5216 62.3203 20.5496 62.2269 20.5496H61.5829C61.4896 20.5496 61.4103 20.5216 61.3449 20.4656C61.2889 20.4002 61.2609 20.3209 61.2609 20.2276V16.3496C61.2609 15.6776 61.0976 15.1549 60.7709 14.7816C60.4443 14.4082 59.9776 14.2216 59.3709 14.2216C58.7736 14.2216 58.2976 14.4129 57.9429 14.7956C57.5883 15.1689 57.4109 15.6869 57.4109 16.3496V20.2276C57.4109 20.3209 57.3783 20.4002 57.3129 20.4656C57.2569 20.5216 57.1823 20.5496 57.0889 20.5496H56.4449ZM64.9082 20.5496C64.8148 20.5496 64.7355 20.5216 64.6702 20.4656C64.6142 20.4002 64.5862 20.3209 64.5862 20.2276V10.9316C64.5862 10.8289 64.6142 10.7496 64.6702 10.6936C64.7355 10.6376 64.8148 10.6096 64.9082 10.6096H65.5242C65.6175 10.6096 65.6922 10.6422 65.7482 10.7076C65.8135 10.7636 65.8462 10.8382 65.8462 10.9316V20.2276C65.8462 20.3209 65.8135 20.4002 65.7482 20.4656C65.6922 20.5216 65.6175 20.5496 65.5242 20.5496H64.9082ZM68.1591 11.8976C68.0658 11.8976 67.9864 11.8696 67.9211 11.8136C67.8651 11.7482 67.8371 11.6689 67.8371 11.5756V10.8476C67.8371 10.7542 67.8651 10.6749 67.9211 10.6096C67.9864 10.5442 68.0658 10.5116 68.1591 10.5116H68.9851C69.0784 10.5116 69.1578 10.5442 69.2231 10.6096C69.2884 10.6749 69.3211 10.7542 69.3211 10.8476V11.5756C69.3211 11.6689 69.2884 11.7482 69.2231 11.8136C69.1578 11.8696 69.0784 11.8976 68.9851 11.8976H68.1591ZM68.2711 20.5496C68.1778 20.5496 68.0984 20.5216 68.0331 20.4656C67.9771 20.4002 67.9491 20.3209 67.9491 20.2276V13.5916C67.9491 13.4982 67.9771 13.4236 68.0331 13.3676C68.0984 13.3022 68.1778 13.2696 68.2711 13.2696H68.8871C68.9804 13.2696 69.0551 13.3022 69.1111 13.3676C69.1764 13.4236 69.2091 13.4982 69.2091 13.5916V20.2276C69.2091 20.3209 69.1764 20.4002 69.1111 20.4656C69.0551 20.5216 68.9804 20.5496 68.8871 20.5496H68.2711ZM71.6344 20.5496C71.5411 20.5496 71.4617 20.5216 71.3964 20.4656C71.3404 20.4002 71.3124 20.3209 71.3124 20.2276V13.5916C71.3124 13.4982 71.3404 13.4236 71.3964 13.3676C71.4617 13.3022 71.5411 13.2696 71.6344 13.2696H72.2224C72.3157 13.2696 72.3904 13.3022 72.4464 13.3676C72.5024 13.4236 72.5304 13.4982 72.5304 13.5916V14.0676C73.0344 13.4422 73.7157 13.1296 74.5744 13.1296C75.6011 13.1296 76.3291 13.5589 76.7584 14.4176C76.9824 14.0256 77.2997 13.7129 77.7104 13.4796C78.1304 13.2462 78.5971 13.1296 79.1104 13.1296C79.8757 13.1296 80.5011 13.3909 80.9864 13.9136C81.4717 14.4362 81.7144 15.1922 81.7144 16.1816V20.2276C81.7144 20.3209 81.6817 20.4002 81.6164 20.4656C81.5604 20.5216 81.4857 20.5496 81.3924 20.5496H80.7904C80.6971 20.5496 80.6177 20.5216 80.5524 20.4656C80.4964 20.4002 80.4684 20.3209 80.4684 20.2276V16.3076C80.4684 15.5609 80.3144 15.0289 80.0064 14.7116C79.6984 14.3849 79.2924 14.2216 78.7884 14.2216C78.3404 14.2216 77.9531 14.3896 77.6264 14.7256C77.3091 15.0522 77.1504 15.5796 77.1504 16.3076V20.2276C77.1504 20.3209 77.1177 20.4002 77.0524 20.4656C76.9964 20.5216 76.9217 20.5496 76.8284 20.5496H76.2124C76.1191 20.5496 76.0397 20.5216 75.9744 20.4656C75.9184 20.4002 75.8904 20.3209 75.8904 20.2276V16.3076C75.8904 15.5702 75.7271 15.0382 75.4004 14.7116C75.0831 14.3849 74.6864 14.2216 74.2104 14.2216C73.7624 14.2216 73.3751 14.3849 73.0484 14.7116C72.7311 15.0382 72.5724 15.5656 72.5724 16.2936V20.2276C72.5724 20.3209 72.5397 20.4002 72.4744 20.4656C72.4184 20.5216 72.3437 20.5496 72.2504 20.5496H71.6344ZM83.9501 11.8976C83.8568 11.8976 83.7775 11.8696 83.7121 11.8136C83.6561 11.7482 83.6281 11.6689 83.6281 11.5756V10.8476C83.6281 10.7542 83.6561 10.6749 83.7121 10.6096C83.7775 10.5442 83.8568 10.5116 83.9501 10.5116H84.7761C84.8695 10.5116 84.9488 10.5442 85.0141 10.6096C85.0795 10.6749 85.1121 10.7542 85.1121 10.8476V11.5756C85.1121 11.6689 85.0795 11.7482 85.0141 11.8136C84.9488 11.8696 84.8695 11.8976 84.7761 11.8976H83.9501ZM84.0621 20.5496C83.9688 20.5496 83.8895 20.5216 83.8241 20.4656C83.7681 20.4002 83.7401 20.3209 83.7401 20.2276V13.5916C83.7401 13.4982 83.7681 13.4236 83.8241 13.3676C83.8895 13.3022 83.9688 13.2696 84.0621 13.2696H84.6781C84.7715 13.2696 84.8461 13.3022 84.9021 13.3676C84.9675 13.4236 85.0001 13.4982 85.0001 13.5916V20.2276C85.0001 20.3209 84.9675 20.4002 84.9021 20.4656C84.8461 20.5216 84.7715 20.5496 84.6781 20.5496H84.0621ZM89.9034 20.5496C88.4567 20.5496 87.7334 19.7329 87.7334 18.0996V14.3476H86.6274C86.5341 14.3476 86.4594 14.3196 86.4034 14.2636C86.3474 14.2076 86.3194 14.1329 86.3194 14.0396V13.5916C86.3194 13.4982 86.3474 13.4236 86.4034 13.3676C86.4594 13.3022 86.5341 13.2696 86.6274 13.2696H87.7334V10.9316C87.7334 10.8382 87.7614 10.7636 87.8174 10.7076C87.8734 10.6422 87.9481 10.6096 88.0414 10.6096H88.6574C88.7507 10.6096 88.8254 10.6422 88.8814 10.7076C88.9467 10.7636 88.9794 10.8382 88.9794 10.9316V13.2696H90.7154C90.8087 13.2696 90.8834 13.3022 90.9394 13.3676C91.0047 13.4236 91.0374 13.4982 91.0374 13.5916V14.0396C91.0374 14.1329 91.0047 14.2076 90.9394 14.2636C90.8834 14.3196 90.8087 14.3476 90.7154 14.3476H88.9794V18.0016C88.9794 18.4776 89.0541 18.8369 89.2034 19.0796C89.3621 19.3222 89.6281 19.4436 90.0014 19.4436H90.8554C90.9487 19.4436 91.0234 19.4762 91.0794 19.5416C91.1354 19.5976 91.1634 19.6722 91.1634 19.7656V20.2276C91.1634 20.3209 91.1354 20.4002 91.0794 20.4656C91.0234 20.5216 90.9487 20.5496 90.8554 20.5496H89.9034ZM95.4151 20.6896C94.4631 20.6896 93.7025 20.3956 93.1331 19.8076C92.5638 19.2102 92.2511 18.3982 92.1951 17.3716L92.1811 16.8956L92.1951 16.4336C92.2511 15.4256 92.5638 14.6229 93.1331 14.0256C93.7025 13.4282 94.4631 13.1296 95.4151 13.1296C96.4418 13.1296 97.2351 13.4562 97.7951 14.1096C98.3645 14.7629 98.6491 15.6496 98.6491 16.7696V17.0216C98.6491 17.1149 98.6165 17.1942 98.5511 17.2596C98.4951 17.3156 98.4205 17.3436 98.3271 17.3436H93.4691V17.4696C93.4971 18.0762 93.6838 18.5942 94.0291 19.0236C94.3745 19.4529 94.8318 19.6676 95.4011 19.6676C95.8398 19.6676 96.1945 19.5836 96.4651 19.4156C96.7451 19.2382 96.9551 19.0562 97.0951 18.8696C97.1791 18.7576 97.2445 18.6922 97.2911 18.6736C97.3378 18.6456 97.4171 18.6316 97.5291 18.6316H98.1451C98.2291 18.6316 98.2991 18.6549 98.3551 18.7016C98.4205 18.7482 98.4531 18.8089 98.4531 18.8836C98.4531 19.0889 98.3271 19.3362 98.0751 19.6256C97.8231 19.9149 97.4638 20.1669 96.9971 20.3816C96.5398 20.5869 96.0125 20.6896 95.4151 20.6896ZM97.3751 16.3916V16.3496C97.3751 15.6962 97.1978 15.1642 96.8431 14.7536C96.4885 14.3429 96.0125 14.1376 95.4151 14.1376C94.8085 14.1376 94.3325 14.3429 93.9871 14.7536C93.6418 15.1642 93.4691 15.6962 93.4691 16.3496V16.3916H97.3751ZM103.011 20.6896C102.031 20.6896 101.294 20.3722 100.799 19.7376C100.314 19.1029 100.053 18.3002 100.015 17.3296L100.001 16.9096L100.015 16.4896C100.053 15.5282 100.319 14.7302 100.813 14.0956C101.308 13.4516 102.041 13.1296 103.011 13.1296C103.982 13.1296 104.738 13.4749 105.279 14.1656V10.9316C105.279 10.8382 105.307 10.7636 105.363 10.7076C105.429 10.6422 105.508 10.6096 105.601 10.6096H106.231C106.325 10.6096 106.399 10.6422 106.455 10.7076C106.521 10.7636 106.553 10.8382 106.553 10.9316V20.2276C106.553 20.3209 106.521 20.4002 106.455 20.4656C106.399 20.5216 106.325 20.5496 106.231 20.5496H105.629C105.536 20.5496 105.461 20.5216 105.405 20.4656C105.349 20.4002 105.321 20.3209 105.321 20.2276V19.6256C104.789 20.3349 104.019 20.6896 103.011 20.6896ZM103.277 19.5976C103.931 19.5976 104.421 19.3829 104.747 18.9536C105.074 18.5149 105.251 17.9969 105.279 17.3996C105.289 17.2969 105.293 17.1196 105.293 16.8676C105.293 16.6062 105.289 16.4242 105.279 16.3216C105.261 15.7522 105.079 15.2622 104.733 14.8516C104.397 14.4316 103.912 14.2216 103.277 14.2216C102.605 14.2216 102.115 14.4316 101.807 14.8516C101.499 15.2716 101.331 15.8222 101.303 16.5036L101.289 16.9096C101.289 18.7016 101.952 19.5976 103.277 19.5976ZM112.599 20.5496C112.506 20.5496 112.431 20.5216 112.375 20.4656C112.319 20.4002 112.291 20.3209 112.291 20.2276V11.0856C112.291 10.9829 112.319 10.9036 112.375 10.8476C112.431 10.7822 112.506 10.7496 112.599 10.7496H116.421C117.411 10.7496 118.157 10.9876 118.661 11.4636C119.165 11.9396 119.417 12.5602 119.417 13.3256C119.417 13.8482 119.296 14.2869 119.053 14.6416C118.811 14.9869 118.526 15.2389 118.199 15.3976C118.601 15.5936 118.937 15.8969 119.207 16.3076C119.478 16.7182 119.613 17.1896 119.613 17.7216C119.613 18.2442 119.492 18.7202 119.249 19.1496C119.016 19.5789 118.666 19.9196 118.199 20.1716C117.733 20.4236 117.177 20.5496 116.533 20.5496H112.599ZM116.211 14.9076C116.818 14.9076 117.28 14.7722 117.597 14.5016C117.915 14.2216 118.073 13.8342 118.073 13.3396C118.073 12.8542 117.915 12.4856 117.597 12.2336C117.289 11.9816 116.827 11.8556 116.211 11.8556H113.607V14.9076H116.211ZM116.351 19.4436C116.949 19.4436 117.415 19.2849 117.751 18.9676C118.097 18.6409 118.269 18.2256 118.269 17.7216C118.269 17.2082 118.097 16.7929 117.751 16.4756C117.415 16.1582 116.949 15.9996 116.351 15.9996H113.607V19.4436H116.351ZM123.463 20.6896C123.006 20.6896 122.581 20.5962 122.189 20.4096C121.806 20.2229 121.498 19.9709 121.265 19.6536C121.041 19.3269 120.929 18.9676 120.929 18.5756C120.929 17.9596 121.181 17.4556 121.685 17.0636C122.189 16.6716 122.875 16.4102 123.743 16.2796L125.843 15.9856V15.5796C125.843 14.6182 125.288 14.1376 124.177 14.1376C123.748 14.1376 123.402 14.2262 123.141 14.4036C122.88 14.5716 122.688 14.7722 122.567 15.0056C122.53 15.0989 122.488 15.1642 122.441 15.2016C122.404 15.2296 122.348 15.2436 122.273 15.2436H121.727C121.643 15.2436 121.568 15.2156 121.503 15.1596C121.447 15.0942 121.419 15.0196 121.419 14.9356C121.419 14.7209 121.517 14.4736 121.713 14.1936C121.918 13.9042 122.231 13.6569 122.651 13.4516C123.071 13.2369 123.584 13.1296 124.191 13.1296C125.236 13.1296 125.983 13.3722 126.431 13.8576C126.888 14.3429 127.117 14.9496 127.117 15.6776V20.2276C127.117 20.3209 127.084 20.4002 127.019 20.4656C126.963 20.5216 126.888 20.5496 126.795 20.5496H126.179C126.086 20.5496 126.011 20.5216 125.955 20.4656C125.899 20.4002 125.871 20.3209 125.871 20.2276V19.6116C125.666 19.9196 125.367 20.1762 124.975 20.3816C124.583 20.5869 124.079 20.6896 123.463 20.6896ZM123.743 19.6676C124.359 19.6676 124.863 19.4669 125.255 19.0656C125.647 18.6642 125.843 18.0809 125.843 17.3156V16.9236L124.205 17.1616C123.533 17.2549 123.024 17.4136 122.679 17.6376C122.334 17.8616 122.161 18.1416 122.161 18.4776C122.161 18.8602 122.315 19.1542 122.623 19.3596C122.94 19.5649 123.314 19.6676 123.743 19.6676ZM129.466 20.5496C129.373 20.5496 129.294 20.5216 129.228 20.4656C129.172 20.4002 129.144 20.3209 129.144 20.2276V13.5916C129.144 13.4982 129.172 13.4236 129.228 13.3676C129.294 13.3022 129.373 13.2696 129.466 13.2696H130.068C130.171 13.2696 130.25 13.2976 130.306 13.3536C130.362 13.4096 130.39 13.4889 130.39 13.5916V14.2076C130.67 13.8622 130.992 13.5962 131.356 13.4096C131.73 13.2229 132.192 13.1296 132.742 13.1296C133.638 13.1296 134.334 13.4189 134.828 13.9976C135.323 14.5669 135.57 15.3229 135.57 16.2656V20.2276C135.57 20.3209 135.538 20.4002 135.472 20.4656C135.416 20.5216 135.342 20.5496 135.248 20.5496H134.604C134.511 20.5496 134.432 20.5216 134.366 20.4656C134.31 20.4002 134.282 20.3209 134.282 20.2276V16.3496C134.282 15.6776 134.119 15.1549 133.792 14.7816C133.466 14.4082 132.999 14.2216 132.392 14.2216C131.795 14.2216 131.319 14.4129 130.964 14.7956C130.61 15.1689 130.432 15.6869 130.432 16.3496V20.2276C130.432 20.3209 130.4 20.4002 130.334 20.4656C130.278 20.5216 130.204 20.5496 130.11 20.5496H129.466ZM140.254 20.6896C139.274 20.6896 138.536 20.3722 138.042 19.7376C137.556 19.1029 137.295 18.3002 137.258 17.3296L137.244 16.9096L137.258 16.4896C137.295 15.5282 137.561 14.7302 138.056 14.0956C138.55 13.4516 139.283 13.1296 140.254 13.1296C141.224 13.1296 141.98 13.4749 142.522 14.1656V10.9316C142.522 10.8382 142.55 10.7636 142.606 10.7076C142.671 10.6422 142.75 10.6096 142.844 10.6096H143.474C143.567 10.6096 143.642 10.6422 143.698 10.7076C143.763 10.7636 143.796 10.8382 143.796 10.9316V20.2276C143.796 20.3209 143.763 20.4002 143.698 20.4656C143.642 20.5216 143.567 20.5496 143.474 20.5496H142.872C142.778 20.5496 142.704 20.5216 142.648 20.4656C142.592 20.4002 142.564 20.3209 142.564 20.2276V19.6256C142.032 20.3349 141.262 20.6896 140.254 20.6896ZM140.52 19.5976C141.173 19.5976 141.663 19.3829 141.99 18.9536C142.316 18.5149 142.494 17.9969 142.522 17.3996C142.531 17.2969 142.536 17.1196 142.536 16.8676C142.536 16.6062 142.531 16.4242 142.522 16.3216C142.503 15.7522 142.321 15.2622 141.976 14.8516C141.64 14.4316 141.154 14.2216 140.52 14.2216C139.848 14.2216 139.358 14.4316 139.05 14.8516C138.742 15.2716 138.574 15.8222 138.546 16.5036L138.532 16.9096C138.532 18.7016 139.194 19.5976 140.52 19.5976ZM147.838 20.5496C147.707 20.5496 147.609 20.5216 147.544 20.4656C147.479 20.4096 147.427 20.3209 147.39 20.1996L145.402 13.7036L145.374 13.5636C145.374 13.4796 145.402 13.4096 145.458 13.3536C145.514 13.2976 145.584 13.2696 145.668 13.2696H146.242C146.335 13.2696 146.41 13.2976 146.466 13.3536C146.531 13.4002 146.569 13.4469 146.578 13.4936L148.16 18.8416L149.84 13.5636C149.859 13.4889 149.901 13.4236 149.966 13.3676C150.031 13.3022 150.12 13.2696 150.232 13.2696H150.68C150.792 13.2696 150.881 13.3022 150.946 13.3676C151.011 13.4236 151.053 13.4889 151.072 13.5636L152.752 18.8416L154.334 13.4936C154.343 13.4469 154.376 13.4002 154.432 13.3536C154.497 13.2976 154.577 13.2696 154.67 13.2696H155.244C155.328 13.2696 155.398 13.2976 155.454 13.3536C155.51 13.4096 155.538 13.4796 155.538 13.5636L155.51 13.7036L153.522 20.1996C153.485 20.3209 153.433 20.4096 153.368 20.4656C153.303 20.5216 153.205 20.5496 153.074 20.5496H152.57C152.327 20.5496 152.169 20.4329 152.094 20.1996L150.456 15.1316L148.818 20.1996C148.743 20.4329 148.585 20.5496 148.342 20.5496H147.838ZM157.313 11.8976C157.22 11.8976 157.141 11.8696 157.075 11.8136C157.019 11.7482 156.991 11.6689 156.991 11.5756V10.8476C156.991 10.7542 157.019 10.6749 157.075 10.6096C157.141 10.5442 157.22 10.5116 157.313 10.5116H158.139C158.233 10.5116 158.312 10.5442 158.377 10.6096C158.443 10.6749 158.475 10.7542 158.475 10.8476V11.5756C158.475 11.6689 158.443 11.7482 158.377 11.8136C158.312 11.8696 158.233 11.8976 158.139 11.8976H157.313ZM157.425 20.5496C157.332 20.5496 157.253 20.5216 157.187 20.4656C157.131 20.4002 157.103 20.3209 157.103 20.2276V13.5916C157.103 13.4982 157.131 13.4236 157.187 13.3676C157.253 13.3022 157.332 13.2696 157.425 13.2696H158.041C158.135 13.2696 158.209 13.3022 158.265 13.3676C158.331 13.4236 158.363 13.4982 158.363 13.5916V20.2276C158.363 20.3209 158.331 20.4002 158.265 20.4656C158.209 20.5216 158.135 20.5496 158.041 20.5496H157.425ZM163.267 20.5496C161.82 20.5496 161.097 19.7329 161.097 18.0996V14.3476H159.991C159.897 14.3476 159.823 14.3196 159.767 14.2636C159.711 14.2076 159.683 14.1329 159.683 14.0396V13.5916C159.683 13.4982 159.711 13.4236 159.767 13.3676C159.823 13.3022 159.897 13.2696 159.991 13.2696H161.097V10.9316C161.097 10.8382 161.125 10.7636 161.181 10.7076C161.237 10.6422 161.311 10.6096 161.405 10.6096H162.021C162.114 10.6096 162.189 10.6422 162.245 10.7076C162.31 10.7636 162.343 10.8382 162.343 10.9316V13.2696H164.079C164.172 13.2696 164.247 13.3022 164.303 13.3676C164.368 13.4236 164.401 13.4982 164.401 13.5916V14.0396C164.401 14.1329 164.368 14.2076 164.303 14.2636C164.247 14.3196 164.172 14.3476 164.079 14.3476H162.343V18.0016C162.343 18.4776 162.417 18.8369 162.567 19.0796C162.725 19.3222 162.991 19.4436 163.365 19.4436H164.219C164.312 19.4436 164.387 19.4762 164.443 19.5416C164.499 19.5976 164.527 19.6722 164.527 19.7656V20.2276C164.527 20.3209 164.499 20.4002 164.443 20.4656C164.387 20.5216 164.312 20.5496 164.219 20.5496H163.267ZM168.806 20.6896C167.808 20.6896 167.028 20.4096 166.468 19.8496C165.908 19.2802 165.614 18.4869 165.586 17.4696L165.572 16.9096L165.586 16.3496C165.614 15.3322 165.908 14.5436 166.468 13.9836C167.028 13.4142 167.808 13.1296 168.806 13.1296C169.478 13.1296 170.043 13.2509 170.5 13.4936C170.967 13.7269 171.312 14.0209 171.536 14.3756C171.77 14.7302 171.896 15.0849 171.914 15.4396C171.924 15.5236 171.891 15.5982 171.816 15.6636C171.751 15.7289 171.676 15.7616 171.592 15.7616H170.976C170.883 15.7616 170.813 15.7429 170.766 15.7056C170.72 15.6589 170.673 15.5796 170.626 15.4676C170.458 15.0102 170.225 14.6882 169.926 14.5016C169.637 14.3056 169.268 14.2076 168.82 14.2076C168.232 14.2076 167.766 14.3896 167.42 14.7536C167.075 15.1176 166.888 15.6729 166.86 16.4196L166.846 16.9096L166.86 17.3996C166.888 18.1462 167.075 18.7016 167.42 19.0656C167.766 19.4296 168.232 19.6116 168.82 19.6116C169.278 19.6116 169.651 19.5182 169.94 19.3316C170.23 19.1356 170.458 18.8089 170.626 18.3516C170.673 18.2396 170.72 18.1649 170.766 18.1276C170.813 18.0809 170.883 18.0576 170.976 18.0576H171.592C171.676 18.0576 171.751 18.0902 171.816 18.1556C171.891 18.2209 171.924 18.2956 171.914 18.3796C171.896 18.7249 171.77 19.0749 171.536 19.4296C171.312 19.7842 170.967 20.0829 170.5 20.3256C170.043 20.5682 169.478 20.6896 168.806 20.6896ZM173.928 20.5496C173.834 20.5496 173.755 20.5216 173.69 20.4656C173.634 20.4002 173.606 20.3209 173.606 20.2276V10.9316C173.606 10.8289 173.634 10.7496 173.69 10.6936C173.755 10.6376 173.834 10.6096 173.928 10.6096H174.572C174.674 10.6096 174.754 10.6376 174.81 10.6936C174.866 10.7496 174.894 10.8289 174.894 10.9316V14.1936C175.164 13.8482 175.482 13.5869 175.846 13.4096C176.219 13.2229 176.676 13.1296 177.218 13.1296C178.114 13.1296 178.809 13.4189 179.304 13.9976C179.808 14.5669 180.06 15.3229 180.06 16.2656V20.2276C180.06 20.3209 180.027 20.4002 179.962 20.4656C179.906 20.5216 179.831 20.5496 179.738 20.5496H179.08C178.986 20.5496 178.907 20.5216 178.842 20.4656C178.786 20.4002 178.758 20.3209 178.758 20.2276V16.3496C178.758 15.6776 178.594 15.1549 178.268 14.7816C177.941 14.4082 177.47 14.2216 176.854 14.2216C176.256 14.2216 175.78 14.4129 175.426 14.7956C175.071 15.1689 174.894 15.6869 174.894 16.3496V20.2276C174.894 20.3209 174.861 20.4002 174.796 20.4656C174.74 20.5216 174.665 20.5496 174.572 20.5496H173.928Z" fill="#4F5665"/>
<path d="M11.3961 20.2796C11.2648 20.2798 11.1348 20.2542 11.0135 20.2041C10.8922 20.154 10.7819 20.0804 10.6891 19.9876L6.4471 15.7446C6.35153 15.6524 6.27527 15.5421 6.22277 15.4201C6.17028 15.2982 6.1426 15.167 6.14136 15.0342C6.14011 14.9014 6.16532 14.7697 6.21551 14.6468C6.26571 14.5238 6.33988 14.4121 6.43371 14.3182C6.52753 14.2242 6.63913 14.1499 6.76199 14.0995C6.88485 14.0492 7.01651 14.0238 7.14929 14.0248C7.28207 14.0259 7.4133 14.0534 7.53534 14.1057C7.65738 14.158 7.76778 14.2341 7.8601 14.3296L11.3951 17.8646L17.7601 11.5016C17.9476 11.3139 18.202 11.2085 18.4672 11.2084C18.7325 11.2083 18.987 11.3136 19.1746 11.5011C19.3622 11.6886 19.4677 11.9429 19.4678 12.2082C19.4679 12.4735 19.3626 12.7279 19.1751 12.9156L12.1031 19.9876C12.0103 20.0804 11.9 20.154 11.7787 20.2041C11.6574 20.2542 11.5274 20.2798 11.3961 20.2796Z" fill="#2FAB73"/>
</svg>
